<?xml version="1.0" encoding="UTF-8" standalone="no"?>
<!-- Created with Inkscape (http://www.inkscape.org/) -->

<svg
   width="128"
   height="128"
   viewBox="0 0 128 128"
   version="1.1"
   id="svg1"
   inkscape:export-filename="png/facade.png"
   inkscape:export-xdpi="192"
   inkscape:export-ydpi="192"
   inkscape:version="1.4 (e7c3feb100, 2024-10-09)"
   sodipodi:docname="geometry along path.svg"
   xml:space="preserve"
   xmlns:inkscape="http://www.inkscape.org/namespaces/inkscape"
   xmlns:sodipodi="http://sodipodi.sourceforge.net/DTD/sodipodi-0.dtd"
   xmlns="http://www.w3.org/2000/svg"
   xmlns:svg="http://www.w3.org/2000/svg"><sodipodi:namedview
     id="namedview1"
     pagecolor="#414141"
     bordercolor="#666666"
     borderopacity="1.0"
     inkscape:showpageshadow="2"
     inkscape:pageopacity="0.0"
     inkscape:pagecheckerboard="0"
     inkscape:deskcolor="#d1d1d1"
     inkscape:document-units="px"
     inkscape:zoom="5.6568542"
     inkscape:cx="41.277359"
     inkscape:cy="32.438524"
     inkscape:window-width="2399"
     inkscape:window-height="1589"
     inkscape:window-x="1145"
     inkscape:window-y="200"
     inkscape:window-maximized="0"
     inkscape:current-layer="g36"
     inkscape:clip-to-page="false"
     inkscape:antialias-rendering="true"
     showgrid="false" /><defs
     id="defs1"><rect
       x="132.20701"
       y="-31.85102"
       width="80.385908"
       height="199.19527"
       id="rect16" /><rect
       x="140.29616"
       y="51.821104"
       width="44.7431"
       height="78.363621"
       id="rect15" /><clipPath
       clipPathUnits="userSpaceOnUse"
       id="clipPath2"><path
         d="M 40,0 V 950 H 970 V 0 Z"
         transform="translate(0,-2.5000001e-5)"
         id="path2" /></clipPath><clipPath
       clipPathUnits="userSpaceOnUse"
       id="clipPath4"><path
         d="M 40,0 V 950 H 970 V 0 Z"
         transform="translate(0,-2.5000001e-5)"
         id="path4" /></clipPath><clipPath
       clipPathUnits="userSpaceOnUse"
       id="clipPath6"><path
         d="M 40,0 V 950 H 970 V 0 Z"
         transform="translate(0,-2.5000001e-5)"
         id="path6" /></clipPath><clipPath
       clipPathUnits="userSpaceOnUse"
       id="clipPath8"><path
         d="M 40,0 V 950 H 970 V 0 Z"
         transform="matrix(0.1,0,0,-0.1,-37.664501,4.1082026)"
         id="path8" /></clipPath></defs><g
     id="g1137"
     inkscape:label="Grid"
     style="display:none"><g
       inkscape:label="MajorXGridlines"
       id="g1097"
       transform="matrix(0.911807,0,0,0.92123328,0.05,0.05)"><path
         style="fill:none;stroke:#000000;stroke-width:0.1;stroke-opacity:1.0"
         inkscape:label="MajorXDiv1"
         d="M 10,0 V 138.564"
         id="path1085" /><path
         style="fill:none;stroke:#000000;stroke-width:0.1;stroke-opacity:1.0"
         inkscape:label="MajorXDiv2"
         d="M 20,0 V 138.564"
         id="path1086" /><path
         style="fill:none;stroke:#000000;stroke-width:0.1;stroke-opacity:1.0"
         inkscape:label="MajorXDiv3"
         d="M 30,0 V 138.564"
         id="path1087" /><path
         style="fill:none;stroke:#000000;stroke-width:0.1;stroke-opacity:1.0"
         inkscape:label="MajorXDiv4"
         d="M 40,0 V 138.564"
         id="path1088" /><path
         style="fill:none;stroke:#000000;stroke-width:0.1;stroke-opacity:1.0"
         inkscape:label="MajorXDiv5"
         d="M 50,0 V 138.564"
         id="path1089" /><path
         style="fill:none;stroke:#000000;stroke-width:0.1;stroke-opacity:1.0"
         inkscape:label="MajorXDiv6"
         d="M 60,0 V 138.564"
         id="path1090" /><path
         style="fill:none;stroke:#000000;stroke-width:0.1;stroke-opacity:1.0"
         inkscape:label="MajorXDiv7"
         d="M 70,0 V 138.564"
         id="path1091" /><path
         style="fill:none;stroke:#000000;stroke-width:0.1;stroke-opacity:1.0"
         inkscape:label="MajorXDiv8"
         d="M 80,0 V 138.564"
         id="path1092" /><path
         style="fill:none;stroke:#000000;stroke-width:0.1;stroke-opacity:1.0"
         inkscape:label="MajorXDiv9"
         d="M 90,0 V 138.564"
         id="path1093" /><path
         style="fill:none;stroke:#000000;stroke-width:0.1;stroke-opacity:1.0"
         inkscape:label="MajorXDiv10"
         d="M 100,0 V 138.564"
         id="path1094" /><path
         style="fill:none;stroke:#000000;stroke-width:0.1;stroke-opacity:1.0"
         inkscape:label="MajorXDiv11"
         d="M 110,0 V 138.564"
         id="path1095" /><path
         style="fill:none;stroke:#000000;stroke-width:0.1;stroke-opacity:1.0"
         inkscape:label="MajorXDiv12"
         d="M 120,0 V 138.564"
         id="path1096" /><path
         style="fill:none;stroke:#000000;stroke-width:0.1;stroke-opacity:1.0"
         inkscape:label="MajorXDiv13"
         d="M 130,0 V 138.564"
         id="path1097" /></g><path
       style="fill:none;stroke:#000000;stroke-width:0.1;stroke-opacity:1.0"
       inkscape:label="MajorYDiv13"
       d="M 10,138.564 0,132.791"
       id="path1098"
       transform="matrix(0.911807,0,0,0.92123328,0.05,0.05)" /><path
       style="fill:none;stroke:#000000;stroke-width:0.1;stroke-opacity:1.0"
       inkscape:label="MajorYDiv13"
       d="M 30,138.564 0,121.244"
       id="path1099"
       transform="matrix(0.911807,0,0,0.92123328,0.05,0.05)" /><path
       style="fill:none;stroke:#000000;stroke-width:0.1;stroke-opacity:1.0"
       inkscape:label="MajorYDiv13"
       d="M 50,138.564 0,109.697"
       id="path1100"
       transform="matrix(0.911807,0,0,0.92123328,0.05,0.05)" /><path
       style="fill:none;stroke:#000000;stroke-width:0.1;stroke-opacity:1.0"
       inkscape:label="MajorYDiv13"
       d="M 70,138.564 0,98.1496"
       id="path1101"
       transform="matrix(0.911807,0,0,0.92123328,0.05,0.05)" /><path
       style="fill:none;stroke:#000000;stroke-width:0.1;stroke-opacity:1.0"
       inkscape:label="MajorYDiv13"
       d="M 90,138.564 0,86.6026"
       id="path1102"
       transform="matrix(0.911807,0,0,0.92123328,0.05,0.05)" /><path
       style="fill:none;stroke:#000000;stroke-width:0.1;stroke-opacity:1.0"
       inkscape:label="MajorYDiv13"
       d="M 110,138.564 0,75.0556"
       id="path1103"
       transform="matrix(0.911807,0,0,0.92123328,0.05,0.05)" /><path
       style="fill:none;stroke:#000000;stroke-width:0.1;stroke-opacity:1.0"
       inkscape:label="MajorYDiv13"
       d="M 130,138.564 0,63.5086"
       id="path1104"
       transform="matrix(0.911807,0,0,0.92123328,0.05,0.05)" /><path
       style="fill:none;stroke:#000000;stroke-width:0.1;stroke-opacity:1.0"
       inkscape:label="MajorYDiv13"
       d="M 140,132.791 0,51.9615"
       id="path1105"
       transform="matrix(0.911807,0,0,0.92123328,0.05,0.05)" /><path
       style="fill:none;stroke:#000000;stroke-width:0.1;stroke-opacity:1.0"
       inkscape:label="MajorYDiv13"
       d="M 140,121.244 0,40.4145"
       id="path1106"
       transform="matrix(0.911807,0,0,0.92123328,0.05,0.05)" /><path
       style="fill:none;stroke:#000000;stroke-width:0.1;stroke-opacity:1.0"
       inkscape:label="MajorYDiv13"
       d="M 140,109.697 0,28.8675"
       id="path1107"
       transform="matrix(0.911807,0,0,0.92123328,0.05,0.05)" /><path
       style="fill:none;stroke:#000000;stroke-width:0.1;stroke-opacity:1.0"
       inkscape:label="MajorYDiv13"
       d="M 140,98.1496 0,17.3205"
       id="path1108"
       transform="matrix(0.911807,0,0,0.92123328,0.05,0.05)" /><path
       style="fill:none;stroke:#000000;stroke-width:0.1;stroke-opacity:1.0"
       inkscape:label="MajorYDiv13"
       d="M 140,86.6026 0,5.77351"
       id="path1109"
       transform="matrix(0.911807,0,0,0.92123328,0.05,0.05)" /><path
       style="fill:none;stroke:#000000;stroke-width:0.1;stroke-opacity:1.0"
       inkscape:label="MajorYDiv13"
       d="M 140,75.0556 10,0"
       id="path1110"
       transform="matrix(0.911807,0,0,0.92123328,0.05,0.05)" /><path
       style="fill:none;stroke:#000000;stroke-width:0.1;stroke-opacity:1.0"
       inkscape:label="MajorYDiv13"
       d="M 140,63.5086 30,0"
       id="path1111"
       transform="matrix(0.911807,0,0,0.92123328,0.05,0.05)" /><path
       style="fill:none;stroke:#000000;stroke-width:0.1;stroke-opacity:1.0"
       inkscape:label="MajorYDiv13"
       d="M 140,51.9615 50,0"
       id="path1112"
       transform="matrix(0.911807,0,0,0.92123328,0.05,0.05)" /><path
       style="fill:none;stroke:#000000;stroke-width:0.1;stroke-opacity:1.0"
       inkscape:label="MajorYDiv13"
       d="M 140,40.4145 70,0"
       id="path1113"
       transform="matrix(0.911807,0,0,0.92123328,0.05,0.05)" /><path
       style="fill:none;stroke:#000000;stroke-width:0.1;stroke-opacity:1.0"
       inkscape:label="MajorYDiv13"
       d="M 140,28.8675 90,0"
       id="path1114"
       transform="matrix(0.911807,0,0,0.92123328,0.05,0.05)" /><path
       style="fill:none;stroke:#000000;stroke-width:0.1;stroke-opacity:1.0"
       inkscape:label="MajorYDiv13"
       d="M 140,17.3205 110,0"
       id="path1115"
       transform="matrix(0.911807,0,0,0.92123328,0.05,0.05)" /><path
       style="fill:none;stroke:#000000;stroke-width:0.1;stroke-opacity:1.0"
       inkscape:label="MajorYDiv13"
       d="M 140,5.77351 130,0"
       id="path1116"
       transform="matrix(0.911807,0,0,0.92123328,0.05,0.05)" /><g
       inkscape:label="MajorYGridlines"
       id="g1116"
       transform="matrix(0.911807,0,0,0.92123328,0.05,0.05)" /><g
       inkscape:label="MajorZGridlines"
       id="g1135"
       transform="matrix(0.911807,0,0,0.92123328,0.05,0.05)"><path
         style="fill:none;stroke:#000000;stroke-width:0.1;stroke-opacity:1.0"
         inkscape:label="MajorZDiv1"
         d="m 130,138.564 10,-5.773"
         id="path1117" /><path
         style="fill:none;stroke:#000000;stroke-width:0.1;stroke-opacity:1.0"
         inkscape:label="MajorZDiv2"
         d="m 110,138.564 30,-17.32"
         id="path1118" /><path
         style="fill:none;stroke:#000000;stroke-width:0.1;stroke-opacity:1.0"
         inkscape:label="MajorZDiv3"
         d="m 90,138.564 50,-28.867"
         id="path1119" /><path
         style="fill:none;stroke:#000000;stroke-width:0.1;stroke-opacity:1.0"
         inkscape:label="MajorZDiv4"
         d="M 70,138.564 140,98.1496"
         id="path1120" /><path
         style="fill:none;stroke:#000000;stroke-width:0.1;stroke-opacity:1.0"
         inkscape:label="MajorZDiv5"
         d="M 50,138.564 140,86.6026"
         id="path1121" /><path
         style="fill:none;stroke:#000000;stroke-width:0.1;stroke-opacity:1.0"
         inkscape:label="MajorZDiv6"
         d="M 30,138.564 140,75.0556"
         id="path1122" /><path
         style="fill:none;stroke:#000000;stroke-width:0.1;stroke-opacity:1.0"
         inkscape:label="MajorZDiv7"
         d="M 10,138.564 140,63.5086"
         id="path1123" /><path
         style="fill:none;stroke:#000000;stroke-width:0.1;stroke-opacity:1.0"
         inkscape:label="MajorZDiv8"
         d="M 0,132.791 140,51.9615"
         id="path1124" /><path
         style="fill:none;stroke:#000000;stroke-width:0.1;stroke-opacity:1.0"
         inkscape:label="MajorZDiv9"
         d="M 0,121.244 140,40.4145"
         id="path1125" /><path
         style="fill:none;stroke:#000000;stroke-width:0.1;stroke-opacity:1.0"
         inkscape:label="MajorZDiv10"
         d="M 0,109.697 140,28.8675"
         id="path1126" /><path
         style="fill:none;stroke:#000000;stroke-width:0.1;stroke-opacity:1.0"
         inkscape:label="MajorZDiv11"
         d="M 0,98.1496 140,17.3205"
         id="path1127" /><path
         style="fill:none;stroke:#000000;stroke-width:0.1;stroke-opacity:1.0"
         inkscape:label="MajorZDiv12"
         d="M 0,86.6026 140,5.77351"
         id="path1128" /><path
         style="fill:none;stroke:#000000;stroke-width:0.1;stroke-opacity:1.0"
         inkscape:label="MajorZDiv13"
         d="M 0,75.0556 130,0"
         id="path1129" /><path
         style="fill:none;stroke:#000000;stroke-width:0.1;stroke-opacity:1.0"
         inkscape:label="MajorZDiv14"
         d="M 0,63.5086 110,0"
         id="path1130" /><path
         style="fill:none;stroke:#000000;stroke-width:0.1;stroke-opacity:1.0"
         inkscape:label="MajorZDiv15"
         d="M 0,51.9615 90,0"
         id="path1131" /><path
         style="fill:none;stroke:#000000;stroke-width:0.1;stroke-opacity:1.0"
         inkscape:label="MajorZDiv16"
         d="M 0,40.4145 70,0"
         id="path1132" /><path
         style="fill:none;stroke:#000000;stroke-width:0.1;stroke-opacity:1.0"
         inkscape:label="MajorZDiv17"
         d="M 0,28.8675 50,0"
         id="path1133" /><path
         style="fill:none;stroke:#000000;stroke-width:0.1;stroke-opacity:1.0"
         inkscape:label="MajorZDiv18"
         d="M 0,17.3205 30,0"
         id="path1134" /><path
         style="fill:none;stroke:#000000;stroke-width:0.1;stroke-opacity:1.0"
         inkscape:label="MajorZDiv19"
         d="M 0,5.77351 10,0"
         id="path1135" /></g><rect
       x="0"
       y="0"
       width="140"
       height="138.56413"
       style="fill:none;stroke:#000000;stroke-width:0.1;stroke-opacity:1.0"
       inkscape:label="Border"
       id="rect1135"
       transform="matrix(0.911807,0,0,0.92123328,0.05,0.05)" /><g
       inkscape:label="Grid_Polar:X7:Y6"
       transform="matrix(0.911807,0,0,0.92123328,0.05,0.05)"
       id="g1136" /></g><g
     inkscape:groupmode="layer"
     id="layer3"
     inkscape:label="Icon"
     style="display:inline;fill:#28a745;fill-opacity:1.0"><g
       id="g36"
       transform="matrix(1.0721813,0,0,1.0721813,-6.6976388,-2.312842)"
       style="fill-opacity:1.0;fill:#28a745"><path
         style="display:inline;fill:none;stroke:#ffffff;stroke-width:1px;stroke-linecap:butt;stroke-linejoin:miter;stroke-dasharray:6, 6;stroke-dashoffset:0;stroke-opacity:1.0"
         d="m 68.72194,101.6466 c 0,0 -20.677621,-4.219192 -29.300737,-10.960155 C 30.798087,83.945482 19.382177,75.319535 16.753588,63.191017 14.125,51.0625 23.362,39.658866 29.27475,35.391933 47.288807,22.392098 68.123607,26.613438 68.900507,46.986002 c 0.539589,14.149559 2.779969,21.200628 4.285045,26.553103 6.188452,22.007885 36.370838,10.513976 39.951538,-1.59099 2.92854,-9.900284 6.54073,-28.284271 6.54073,-32.350135"
         id="path30"
         sodipodi:nodetypes="cssssssc" /><circle
         style="display:inline;fill:#67b479;fill-opacity:1.0;stroke:#ffffff;stroke-width:0.5;stroke-linecap:round;stroke-linejoin:bevel;stroke-miterlimit:0;stroke-dasharray:none;stroke-dashoffset:0;stroke-opacity:1.0"
         id="path11"
         cx="52.921875"
         cy="96.890625"
         r="5.9509525" /><circle
         style="display:inline;fill:#67b479;fill-opacity:1.0;stroke:#ffffff;stroke-width:0.5;stroke-linecap:round;stroke-linejoin:bevel;stroke-miterlimit:0;stroke-dasharray:none;stroke-dashoffset:0;stroke-opacity:1.0"
         id="path11-2"
         cx="39.346874"
         cy="90.190628"
         r="5.9509525" /><circle
         style="display:inline;fill:#67b479;fill-opacity:1.0;stroke:#ffffff;stroke-width:0.5;stroke-linecap:round;stroke-linejoin:bevel;stroke-miterlimit:0;stroke-dasharray:none;stroke-dashoffset:0;stroke-opacity:1.0"
         id="path11-9"
         cx="26.109688"
         cy="80.280411"
         r="5.9509525" /><circle
         style="display:inline;fill:#67b479;fill-opacity:1.0;stroke:#ffffff;stroke-width:0.5;stroke-linecap:round;stroke-linejoin:bevel;stroke-miterlimit:0;stroke-dasharray:none;stroke-dashoffset:0;stroke-opacity:1.0"
         id="path11-4"
         cx="74.690628"
         cy="72.940628"
         r="5.9509525" /><circle
         style="display:inline;fill:#67b479;fill-opacity:1.0;stroke:#ffffff;stroke-width:0.5;stroke-linecap:round;stroke-linejoin:bevel;stroke-miterlimit:0;stroke-dasharray:none;stroke-dashoffset:0;stroke-opacity:1.0"
         id="path11-6"
         cx="101.87813"
         cy="82.253128"
         r="5.9509525" /><circle
         style="display:inline;fill:#67b479;fill-opacity:1.0;stroke:#ffffff;stroke-width:0.5;stroke-linecap:round;stroke-linejoin:bevel;stroke-miterlimit:0;stroke-dasharray:none;stroke-dashoffset:0;stroke-opacity:1.0"
         id="path11-3"
         cx="111.62813"
         cy="70.93438"
         r="5.9509525" /><circle
         style="display:inline;fill:#67b479;fill-opacity:1.0;stroke:#ffffff;stroke-width:0.5;stroke-linecap:round;stroke-linejoin:bevel;stroke-miterlimit:0;stroke-dasharray:none;stroke-dashoffset:0;stroke-opacity:1.0"
         id="path11-1"
         cx="116.06563"
         cy="56.096878"
         r="5.9509525" /><circle
         style="display:inline;fill:#67b479;fill-opacity:1.0;stroke:#ffffff;stroke-width:0.5;stroke-linecap:round;stroke-linejoin:bevel;stroke-miterlimit:0;stroke-dasharray:none;stroke-dashoffset:0;stroke-opacity:1.0"
         id="path11-7"
         cx="59.023865"
         cy="28.774309"
         r="5.9509525" /><g
         id="g19"
         style="display:inline;fill:#28a745;stroke:#ffffff;stroke-width:0.5;stroke-linejoin:bevel;stroke-dasharray:none;fill-opacity:1.0;stroke-opacity:1.0"><path
           style="fill:#28a745;stroke:#ffffff;stroke-width:0.5;stroke-linecap:butt;stroke-linejoin:bevel;stroke-dasharray:none;stroke-opacity:1.0;fill-opacity:1.0"
           d="m 35.3125,24.25 10.71875,-3.40625 5.375,6.4375 -10.84375,3.53125 z"
           id="path17" /><path
           style="fill:#28a745;stroke:#ffffff;stroke-width:0.5;stroke-linecap:butt;stroke-linejoin:bevel;stroke-dasharray:none;stroke-opacity:1.0;fill-opacity:1.0"
           d="M 40.5625,30.8125 40.84375,40.25 51.75,36.71875 51.40625,27.28125 Z"
           id="path18" /><path
           style="fill:#67b479;stroke:#ffffff;stroke-width:0.5;stroke-linecap:butt;stroke-linejoin:bevel;stroke-dasharray:none;stroke-opacity:1.0;fill-opacity:1.0"
           d="m 35.3125,24.25 5.25,6.5625 0.28125,9.4375 -5.375,-6.375 z"
           id="path19" /></g><g
         id="g16"
         style="stroke:#ffffff;stroke-width:0.5;stroke-linejoin:bevel;stroke-dasharray:none;fill-opacity:1.0;fill:#28a745;stroke-opacity:1.0"><path
           style="fill:#28a745;stroke:#ffffff;stroke-width:0.5;stroke-linecap:butt;stroke-linejoin:bevel;stroke-dasharray:none;stroke-opacity:1.0;fill-opacity:1.0"
           d="M 19.375,34.28125 26.09375,37.6875 35.1875,31.125 28.34375,27.5625 Z"
           id="path14" /><path
           style="fill:#67b479;stroke:#ffffff;stroke-width:0.5;stroke-linecap:butt;stroke-linejoin:bevel;stroke-dasharray:none;stroke-opacity:1.0;fill-opacity:1.0"
           d="m 19.375,34.28125 c 0,0 6.71875,3.40625 6.71875,3.40625 l 3.84375,9.375 -6.5,-2.75 z"
           id="path15" /><path
           style="fill:#28a745;stroke:#ffffff;stroke-width:0.5;stroke-linecap:butt;stroke-linejoin:bevel;stroke-dasharray:none;stroke-opacity:1.0;fill-opacity:1.0"
           d="m 26.09375,37.6875 9.09375,-6.5625 3.96875,9.3125 -9.21875,6.625 z"
           id="path16" /></g><g
         id="g22"
         style="stroke:#ffffff;stroke-width:0.5;stroke-linejoin:bevel;stroke-dasharray:none;fill-opacity:1.0;fill:#28a745;stroke-opacity:1.0"><path
           style="fill:#28a745;stroke:#ffffff;stroke-width:0.5;stroke-linecap:butt;stroke-linejoin:bevel;stroke-dasharray:none;stroke-opacity:1.0;fill-opacity:1.0"
           d="M 62.5625,35.96875 73.875,34.28125 76.0625,45.875 64.78125,47.625 Z"
           id="path20" /><path
           style="fill:#67b479;stroke:#ffffff;stroke-width:0.5;stroke-linecap:butt;stroke-linejoin:bevel;stroke-dasharray:none;stroke-opacity:1.0;fill-opacity:1.0"
           d="M 64.78125,47.625 62.5625,35.96875 59,38 61.28125,49.625 Z"
           id="path21" /><path
           style="fill:#67b479;stroke:#ffffff;stroke-width:0.5;stroke-linecap:butt;stroke-linejoin:bevel;stroke-dasharray:none;stroke-opacity:1.0;fill-opacity:1.0"
           d="m 61.28125,49.625 3.5,-2 L 76.0625,45.875 72.40625,48 Z"
           id="path22" /></g><g
         id="g10"
         style="display:inline;fill:#28a745;stroke:#ffffff;stroke-width:0.5;stroke-linejoin:bevel;stroke-dasharray:none;fill-opacity:1.0;stroke-opacity:1.0"><path
           style="fill:#28a745;stroke:#ffffff;stroke-width:0.5;stroke-linecap:butt;stroke-linejoin:bevel;stroke-dasharray:none;stroke-opacity:1.0;fill-opacity:1.0"
           d="m 18.25,40.4375 -4.125,10.625 10.25,5.09375 4.125,-10.75 z"
           id="path7" /><path
           style="fill:#28a745;stroke:#ffffff;stroke-width:0.5;stroke-linecap:butt;stroke-linejoin:bevel;stroke-dasharray:none;stroke-opacity:1.0;fill-opacity:1.0"
           d="m 14.125,51.0625 -4.28125,2.1875 4,-10.65625 L 18.25,40.4375 Z"
           id="path9" /><path
           style="fill:#67b479;stroke:#ffffff;stroke-width:0.5;stroke-linecap:butt;stroke-linejoin:bevel;stroke-dasharray:none;stroke-opacity:1.0;fill-opacity:1.0"
           d="M 9.84375,53.25 20.1875,58.4375 24.375,56.15625 14.125,51.0625 Z"
           id="path10" /></g><g
         id="g25"
         style="stroke:#ffffff;stroke-width:0.5;stroke-linejoin:bevel;stroke-dasharray:none;fill-opacity:1.0;fill:#28a745;stroke-opacity:1.0"><path
           style="fill:#28a745;stroke:#ffffff;stroke-width:0.5;stroke-linecap:butt;stroke-linejoin:bevel;stroke-dasharray:none;stroke-opacity:1.0;fill-opacity:1.0"
           d="m 78.65625,78.28125 5.875,-6.40625 c 0,0 10.5625,3.65625 10.4375,3.6875 -0.125,0.03125 -5.9375,6.3125 -5.9375,6.3125 z"
           id="path23" /><path
           style="fill:#67b479;stroke:#ffffff;stroke-width:0.5;stroke-linecap:butt;stroke-linejoin:bevel;stroke-dasharray:none;stroke-opacity:1.0;fill-opacity:1.0"
           d="m 78.65625,78.28125 10.375,3.59375 0.03125,9.59375 -10.375,-3.5625 z"
           id="path24" /><path
           style="fill:#28a745;stroke:#ffffff;stroke-width:0.5;stroke-linecap:butt;stroke-linejoin:bevel;stroke-dasharray:none;stroke-opacity:1.0;fill-opacity:1.0"
           d="m 89.0625,91.46875 6.15625,-6.375 L 94.969851,75.561553 89.03125,81.875 Z"
           id="path25" /></g><g
         id="g13"
         style="display:inline;fill:#28a745;stroke:#ffffff;stroke-width:0.5;stroke-linejoin:bevel;stroke-dasharray:none;fill-opacity:1.0;stroke-opacity:1.0"><path
           style="display:inline;fill:#67b479;fill-opacity:1.0;stroke:#67b479;stroke-width:0.0110485;stroke-linecap:round;stroke-linejoin:bevel;stroke-miterlimit:0;stroke-dasharray:none;stroke-dashoffset:0;stroke-opacity:1.0"
           d="m 14.5546,67.068069 c 0.0042,-0.01949 3.830723,-6.126689 3.869863,-6.176341 0.0024,-0.003 0.163765,0.421881 0.158163,0.676859 -0.02274,1.026112 -0.01117,1.978851 0.357841,3.04828 0.504788,1.462934 1.432146,2.694837 2.426899,3.584804 0.120498,0.107805 0.337908,0.313907 0.349454,0.324323 0.01267,0.01143 0.109862,0.440126 0.09051,0.439076 -0.01762,-9.55e-4 -1.846394,-0.492277 -3.705864,-0.962921 -0.652792,-0.251016 -3.556273,-0.890176 -3.546868,-0.93408 z"
           id="path31"
           sodipodi:nodetypes="cccsssscc" /><ellipse
           style="fill:#28a745;fill-opacity:1.0;stroke:#ffffff;stroke-width:0.525002;stroke-linecap:round;stroke-linejoin:bevel;stroke-miterlimit:0;stroke-dasharray:none;stroke-dashoffset:0;stroke-opacity:1.0"
           id="path12"
           cx="40.681961"
           cy="-39.70285"
           rx="4.9495945"
           ry="5.2809253"
           transform="matrix(-0.21375076,0.97688823,-0.7960539,-0.60522574,0,0)" /><path
           style="fill:none;stroke:#ffffff;stroke-width:0.5;stroke-linecap:butt;stroke-linejoin:bevel;stroke-dasharray:none;stroke-opacity:1.0"
           d="M 23.557,69.465216 14.28125,67.125 19.225927,59.257035"
           id="path13" /></g><g
         id="g35"
         style="display:inline;fill-opacity:1.0;fill:#28a745"><path
           style="display:inline;fill:#28a745;fill-opacity:1.0;stroke:#67b479;stroke-width:0.015625;stroke-linecap:round;stroke-linejoin:bevel;stroke-miterlimit:0;stroke-dasharray:none;stroke-dashoffset:0;stroke-opacity:1.0"
           d="m 68.346268,65.642393 c 0.01357,-0.04884 2.489924,-9.066686 2.509016,-9.087155 0.01246,-0.01336 0.790424,0.744613 1.545344,1.545035 l 1.323809,1.403601 0.137474,0.496019 c 0.09633,0.347576 -0.07847,0.953358 -0.152967,1.328014 -0.463302,2.330032 -2.409476,4.319632 -4.756034,4.664212 -0.367044,0.0539 -0.668625,-0.12657 -0.661881,-0.150851 z"
           id="path34"
           sodipodi:nodetypes="ssscscsss" /><path
           style="display:inline;fill:#28a745;fill-opacity:1.0;stroke:#67b479;stroke-width:0.015625;stroke-linecap:round;stroke-linejoin:bevel;stroke-miterlimit:0;stroke-dasharray:none;stroke-dashoffset:0;stroke-opacity:1.0"
           d="m 72.068895,57.452848 -1.203548,-1.271071 0.03,-0.36457 c 0.0043,-0.106324 -0.01897,-0.276099 0.04515,-0.287959 l 0.158797,-0.194079 0.591697,0.342993 c 0.773922,0.448624 1.153021,1.232835 1.558112,2.042661 0.145996,0.291863 0.351792,1.227092 0.32695,1.251934 -0.0059,0.0059 -1.74673,-0.484199 -1.402177,-1.392851 z"
           id="path35"
           sodipodi:nodetypes="cccscssssc" /><path
           style="display:inline;fill:#67b479;fill-opacity:1.0;stroke:#67b479;stroke-width:0.015625;stroke-linecap:round;stroke-linejoin:bevel;stroke-miterlimit:0;stroke-dasharray:none;stroke-dashoffset:0;stroke-opacity:1.0"
           d="m 63.683211,56.554979 c 0.590017,-1.091948 1.56593,-1.451805 2.72549,-1.838187 1.273351,-0.424299 2.88656,-0.513001 3.976488,0.240334 l 0.283445,0.195911 0.01102,0.476437 c 0.0049,0.213911 -0.101345,0.533489 -0.103655,0.5357 -0.0091,0.0088 -7.310677,1.304296 -7.348253,1.304106 -0.02327,-1.17e-4 0.02387,-0.115554 0.08533,-0.229289 z"
           id="path33"
           sodipodi:nodetypes="ssscscsss" /><path
           style="display:inline;fill:#67b479;fill-opacity:1.0;stroke:#67b479;stroke-width:0.015625;stroke-linecap:round;stroke-linejoin:bevel;stroke-miterlimit:0;stroke-dasharray:none;stroke-dashoffset:0;stroke-opacity:1.0"
           d="m 66.940478,65.798431 c -2.092448,-0.320332 -3.558466,-1.731901 -4.210167,-3.72515 -0.34657,-1.059997 -0.403235,-2.308172 -0.09849,-3.359787 0.138652,-0.47846 0.244195,-0.88821 0.320002,-0.906211 0.185225,-0.04398 7.575454,-1.404376 7.592524,-1.397425 0.0142,0.0058 -1.542278,7.719201 -2.400608,9.227531 l -0.185605,0.326162 -0.185903,-0.185301 c -0.08098,-0.0017 -0.312465,0.126755 -0.467153,0.103075 z"
           id="path32"
           sodipodi:nodetypes="cssssscccc" /><ellipse
           style="fill:none;fill-opacity:0.570567;stroke:#ffffff;stroke-width:0.5;stroke-linecap:round;stroke-linejoin:bevel;stroke-miterlimit:0;stroke-dasharray:none;stroke-dashoffset:0;stroke-opacity:1.0"
           id="path26"
           cx="68.12532"
           cy="60.214561"
           rx="5.7973771"
           ry="5.8415713" /><path
           style="fill:none;stroke:#ffffff;stroke-width:0.5;stroke-linecap:butt;stroke-linejoin:bevel;stroke-dasharray:none;stroke-opacity:1.0"
           d="M 70.754872,56.214989 68.12532,66.056133"
           id="path27" /><path
           style="fill:none;stroke:#ffffff;stroke-width:0.5;stroke-linecap:butt;stroke-linejoin:bevel;stroke-dasharray:none;stroke-opacity:1.0"
           d="m 70.843261,55.065941 -0.08839,1.149048 -7.843899,1.446456"
           id="path28" /><path
           style="fill:none;stroke:#ffffff;stroke-width:0.5;stroke-linecap:butt;stroke-linejoin:bevel;stroke-dasharray:none;stroke-opacity:1.0"
           d="m 70.754871,56.214989 3.13682,3.39622"
           id="path29" /><ellipse
           style="fill:#28a745;fill-opacity:1.0;stroke:none;stroke-width:0.437053;stroke-linecap:round;stroke-linejoin:bevel;stroke-miterlimit:0;stroke-dasharray:none;stroke-dashoffset:0"
           id="path36"
           ry="2.3359375"
           rx="2.3075197"
           cy="81.289062"
           cx="24.65127" /><ellipse
           style="display:inline;fill:#28a745;fill-opacity:1.0;stroke:none;stroke-width:0.477981;stroke-linecap:round;stroke-linejoin:bevel;stroke-miterlimit:0;stroke-dasharray:none;stroke-dashoffset:0"
           id="path36-1"
           ry="2.5546875"
           rx="2.5236087"
           cy="81.617188"
           cx="99.086105" /><ellipse
           style="display:inline;fill:#28a745;fill-opacity:1.0;stroke:none;stroke-width:0.295661;stroke-linecap:round;stroke-linejoin:bevel;stroke-miterlimit:0;stroke-dasharray:none;stroke-dashoffset:0"
           id="path36-1-0"
           ry="1.2734375"
           rx="1.9370819"
           cy="87.18927"
           cx="95.480927"
           transform="rotate(-11.357045)" /><ellipse
           style="display:inline;fill:#28a745;fill-opacity:1.0;stroke:none;stroke-width:0.321283;stroke-linecap:round;stroke-linejoin:bevel;stroke-miterlimit:0;stroke-dasharray:none;stroke-dashoffset:0"
           id="path36-8"
           ry="2.0617499"
           rx="1.412786"
           cy="-6.9502492"
           cx="133.19102"
           transform="matrix(0.8785985,0.47756118,-0.43353671,0.90113591,0,0)" /><ellipse
           style="display:inline;fill:#28a745;fill-opacity:1.0;stroke:none;stroke-width:0.412158;stroke-linecap:round;stroke-linejoin:bevel;stroke-miterlimit:0;stroke-dasharray:none;stroke-dashoffset:0"
           id="path36-7"
           ry="1.9685365"
           rx="2.4351401"
           cy="40.844654"
           cx="95.273094"
           transform="matrix(0.94516019,0.32660713,-0.34644066,0.93807189,0,0)" /><ellipse
           style="display:inline;fill:#28a745;fill-opacity:1.0;stroke:none;stroke-width:0.531468;stroke-linecap:round;stroke-linejoin:bevel;stroke-miterlimit:0;stroke-dasharray:none;stroke-dashoffset:0"
           id="path36-7-0"
           ry="2.5039189"
           rx="3.1832652"
           cy="-23.801128"
           cx="59.500568"
           transform="matrix(0.71535756,0.69875859,-0.77119229,0.63660227,0,0)" /><ellipse
           style="display:inline;fill:#28a745;fill-opacity:1.0;stroke:none;stroke-width:0.426434;stroke-linecap:round;stroke-linejoin:bevel;stroke-miterlimit:0;stroke-dasharray:none;stroke-dashoffset:0"
           id="path36-9"
           ry="1.9665563"
           rx="2.609375"
           cy="58.30172"
           cx="76.708221"
           transform="rotate(27.52772)" /><ellipse
           style="display:inline;fill:#28a745;fill-opacity:1.0;stroke:none;stroke-width:0.373673;stroke-linecap:round;stroke-linejoin:bevel;stroke-miterlimit:0;stroke-dasharray:none;stroke-dashoffset:0"
           id="path36-1-2"
           ry="2.2232311"
           rx="1.7723078"
           cy="90.602982"
           cx="67.06781"
           transform="rotate(6.3010176)" /></g><path
         style="display:inline;opacity:0.258163;fill:none;stroke:#ffffff;stroke-width:1px;stroke-linecap:butt;stroke-linejoin:miter;stroke-dasharray:6, 6;stroke-dashoffset:0;stroke-opacity:1.0"
         d="m 68.72194,101.6466 c 0,0 -20.677621,-4.219192 -29.300737,-10.960155 C 30.798087,83.945482 19.382177,75.319535 16.753588,63.191017 14.125,51.0625 23.362,39.658866 29.27475,35.391933 47.288807,22.392098 68.123607,26.613438 68.900507,46.986002 c 0.539589,14.149559 2.779969,21.200628 4.285045,26.553103 6.188452,22.007885 36.370838,10.513976 39.951538,-1.59099 2.92854,-9.900284 6.54073,-28.284271 6.54073,-32.350135"
         id="path30-8"
         sodipodi:nodetypes="cssssssc" /></g></g><g
     inkscape:label="Corner"
     inkscape:groupmode="layer"
     id="layer1"
     style="display:inline"><path
       style="display:inline;fill:#67b479;fill-opacity:1.0;stroke:#ffffff;stroke-width:0.2;stroke-linecap:round;stroke-linejoin:round;stroke-miterlimit:0;stroke-dasharray:none;stroke-opacity:1.0;paint-order:normal"
       d="m 127.74231,113.89387 c -7.20021,7.20021 1.47054,-1.46749 -13.84538,13.84842 7.58574,0 13.80605,-0.0424 13.80605,-0.0424 0,0 0.0393,-3.57019 0.0393,-13.80603 z"
       id="path406"
       sodipodi:nodetypes="cccc" /><text
       xml:space="preserve"
       style="font-size:15px;line-height:1.25;font-family:sans-serif;display:none;fill:#ffffff;fill-opacity:1.0"
       x="113.21716"
       y="125.38454"
       id="text14-6-6-5-2"
       inkscape:label="M"><tspan
         sodipodi:role="line"
         id="tspan14-8-4-0-1"
         x="113.21716"
         y="125.38454"
         style="font-style:normal;font-variant:normal;font-weight:bold;font-stretch:normal;font-size:15px;font-family:Cantarell;-inkscape-font-specification:&quot;Cantarell Bold&quot;;fill:#ffffff;fill-opacity:1.0">M</tspan></text><text
       xml:space="preserve"
       style="font-size:15px;line-height:1.25;font-family:sans-serif;display:none;fill:#ffffff;fill-opacity:1.0"
       x="117.05715"
       y="125.51955"
       id="text14-6-6-5-2-7"
       inkscape:label="S"><tspan
         sodipodi:role="line"
         id="tspan14-8-4-0-1-0"
         x="117.05715"
         y="125.51955"
         style="font-style:normal;font-variant:normal;font-weight:bold;font-stretch:normal;font-size:15px;font-family:Cantarell;-inkscape-font-specification:&quot;Cantarell Bold&quot;;fill:#ffffff;fill-opacity:1.0">S</tspan></text></g></svg>
