<?xml version="1.0" encoding="UTF-8" standalone="no"?>
<!-- Created with Inkscape (http://www.inkscape.org/) -->

<svg
   width="128"
   height="128"
   viewBox="0 0 128 128"
   version="1.1"
   id="svg1"
   inkscape:export-filename="png/facade.png"
   inkscape:export-xdpi="192"
   inkscape:export-ydpi="192"
   inkscape:version="1.4 (e7c3feb100, 2024-10-09)"
   sodipodi:docname="loft profiles.svg"
   xml:space="preserve"
   xmlns:inkscape="http://www.inkscape.org/namespaces/inkscape"
   xmlns:sodipodi="http://sodipodi.sourceforge.net/DTD/sodipodi-0.dtd"
   xmlns="http://www.w3.org/2000/svg"
   xmlns:svg="http://www.w3.org/2000/svg"><sodipodi:namedview
     id="namedview1"
     pagecolor="#414141"
     bordercolor="#666666"
     borderopacity="1.0"
     inkscape:showpageshadow="2"
     inkscape:pageopacity="0.0"
     inkscape:pagecheckerboard="0"
     inkscape:deskcolor="#d1d1d1"
     inkscape:document-units="px"
     inkscape:zoom="7.0808841"
     inkscape:cx="60.232592"
     inkscape:cy="41.379014"
     inkscape:window-width="2179"
     inkscape:window-height="1202"
     inkscape:window-x="1130"
     inkscape:window-y="310"
     inkscape:window-maximized="0"
     inkscape:current-layer="g52"
     inkscape:clip-to-page="false"
     inkscape:antialias-rendering="true"
     showgrid="false" /><defs
     id="defs1"><rect
       x="132.20701"
       y="-31.85102"
       width="80.385908"
       height="199.19527"
       id="rect16" /><rect
       x="140.29616"
       y="51.821104"
       width="44.7431"
       height="78.363621"
       id="rect15" /><clipPath
       clipPathUnits="userSpaceOnUse"
       id="clipPath2"><path
         d="M 40,0 V 950 H 970 V 0 Z"
         transform="translate(0,-2.5000001e-5)"
         id="path2" /></clipPath><clipPath
       clipPathUnits="userSpaceOnUse"
       id="clipPath4"><path
         d="M 40,0 V 950 H 970 V 0 Z"
         transform="translate(0,-2.5000001e-5)"
         id="path4" /></clipPath><clipPath
       clipPathUnits="userSpaceOnUse"
       id="clipPath6"><path
         d="M 40,0 V 950 H 970 V 0 Z"
         transform="translate(0,-2.5000001e-5)"
         id="path6" /></clipPath><clipPath
       clipPathUnits="userSpaceOnUse"
       id="clipPath8"><path
         d="M 40,0 V 950 H 970 V 0 Z"
         transform="matrix(0.1,0,0,-0.1,-37.664501,4.1082026)"
         id="path8" /></clipPath></defs><g
     id="g1137"
     inkscape:label="Grid"
     style="display:none"><g
       inkscape:label="MajorXGridlines"
       id="g1097"
       transform="matrix(0.911807,0,0,0.92123328,0.05,0.05)"><path
         style="fill:none;stroke:#000000;stroke-width:0.1"
         inkscape:label="MajorXDiv1"
         d="M 10,0 V 138.564"
         id="path1085" /><path
         style="fill:none;stroke:#000000;stroke-width:0.1"
         inkscape:label="MajorXDiv2"
         d="M 20,0 V 138.564"
         id="path1086" /><path
         style="fill:none;stroke:#000000;stroke-width:0.1"
         inkscape:label="MajorXDiv3"
         d="M 30,0 V 138.564"
         id="path1087" /><path
         style="fill:none;stroke:#000000;stroke-width:0.1"
         inkscape:label="MajorXDiv4"
         d="M 40,0 V 138.564"
         id="path1088" /><path
         style="fill:none;stroke:#000000;stroke-width:0.1"
         inkscape:label="MajorXDiv5"
         d="M 50,0 V 138.564"
         id="path1089" /><path
         style="fill:none;stroke:#000000;stroke-width:0.1"
         inkscape:label="MajorXDiv6"
         d="M 60,0 V 138.564"
         id="path1090" /><path
         style="fill:none;stroke:#000000;stroke-width:0.1"
         inkscape:label="MajorXDiv7"
         d="M 70,0 V 138.564"
         id="path1091" /><path
         style="fill:none;stroke:#000000;stroke-width:0.1"
         inkscape:label="MajorXDiv8"
         d="M 80,0 V 138.564"
         id="path1092" /><path
         style="fill:none;stroke:#000000;stroke-width:0.1"
         inkscape:label="MajorXDiv9"
         d="M 90,0 V 138.564"
         id="path1093" /><path
         style="fill:none;stroke:#000000;stroke-width:0.1"
         inkscape:label="MajorXDiv10"
         d="M 100,0 V 138.564"
         id="path1094" /><path
         style="fill:none;stroke:#000000;stroke-width:0.1"
         inkscape:label="MajorXDiv11"
         d="M 110,0 V 138.564"
         id="path1095" /><path
         style="fill:none;stroke:#000000;stroke-width:0.1"
         inkscape:label="MajorXDiv12"
         d="M 120,0 V 138.564"
         id="path1096" /><path
         style="fill:none;stroke:#000000;stroke-width:0.1"
         inkscape:label="MajorXDiv13"
         d="M 130,0 V 138.564"
         id="path1097" /></g><path
       style="fill:none;stroke:#000000;stroke-width:0.1"
       inkscape:label="MajorYDiv13"
       d="M 10,138.564 0,132.791"
       id="path1098"
       transform="matrix(0.911807,0,0,0.92123328,0.05,0.05)" /><path
       style="fill:none;stroke:#000000;stroke-width:0.1"
       inkscape:label="MajorYDiv13"
       d="M 30,138.564 0,121.244"
       id="path1099"
       transform="matrix(0.911807,0,0,0.92123328,0.05,0.05)" /><path
       style="fill:none;stroke:#000000;stroke-width:0.1"
       inkscape:label="MajorYDiv13"
       d="M 50,138.564 0,109.697"
       id="path1100"
       transform="matrix(0.911807,0,0,0.92123328,0.05,0.05)" /><path
       style="fill:none;stroke:#000000;stroke-width:0.1"
       inkscape:label="MajorYDiv13"
       d="M 70,138.564 0,98.1496"
       id="path1101"
       transform="matrix(0.911807,0,0,0.92123328,0.05,0.05)" /><path
       style="fill:none;stroke:#000000;stroke-width:0.1"
       inkscape:label="MajorYDiv13"
       d="M 90,138.564 0,86.6026"
       id="path1102"
       transform="matrix(0.911807,0,0,0.92123328,0.05,0.05)" /><path
       style="fill:none;stroke:#000000;stroke-width:0.1"
       inkscape:label="MajorYDiv13"
       d="M 110,138.564 0,75.0556"
       id="path1103"
       transform="matrix(0.911807,0,0,0.92123328,0.05,0.05)" /><path
       style="fill:none;stroke:#000000;stroke-width:0.1"
       inkscape:label="MajorYDiv13"
       d="M 130,138.564 0,63.5086"
       id="path1104"
       transform="matrix(0.911807,0,0,0.92123328,0.05,0.05)" /><path
       style="fill:none;stroke:#000000;stroke-width:0.1"
       inkscape:label="MajorYDiv13"
       d="M 140,132.791 0,51.9615"
       id="path1105"
       transform="matrix(0.911807,0,0,0.92123328,0.05,0.05)" /><path
       style="fill:none;stroke:#000000;stroke-width:0.1"
       inkscape:label="MajorYDiv13"
       d="M 140,121.244 0,40.4145"
       id="path1106"
       transform="matrix(0.911807,0,0,0.92123328,0.05,0.05)" /><path
       style="fill:none;stroke:#000000;stroke-width:0.1"
       inkscape:label="MajorYDiv13"
       d="M 140,109.697 0,28.8675"
       id="path1107"
       transform="matrix(0.911807,0,0,0.92123328,0.05,0.05)" /><path
       style="fill:none;stroke:#000000;stroke-width:0.1"
       inkscape:label="MajorYDiv13"
       d="M 140,98.1496 0,17.3205"
       id="path1108"
       transform="matrix(0.911807,0,0,0.92123328,0.05,0.05)" /><path
       style="fill:none;stroke:#000000;stroke-width:0.1"
       inkscape:label="MajorYDiv13"
       d="M 140,86.6026 0,5.77351"
       id="path1109"
       transform="matrix(0.911807,0,0,0.92123328,0.05,0.05)" /><path
       style="fill:none;stroke:#000000;stroke-width:0.1"
       inkscape:label="MajorYDiv13"
       d="M 140,75.0556 10,0"
       id="path1110"
       transform="matrix(0.911807,0,0,0.92123328,0.05,0.05)" /><path
       style="fill:none;stroke:#000000;stroke-width:0.1"
       inkscape:label="MajorYDiv13"
       d="M 140,63.5086 30,0"
       id="path1111"
       transform="matrix(0.911807,0,0,0.92123328,0.05,0.05)" /><path
       style="fill:none;stroke:#000000;stroke-width:0.1"
       inkscape:label="MajorYDiv13"
       d="M 140,51.9615 50,0"
       id="path1112"
       transform="matrix(0.911807,0,0,0.92123328,0.05,0.05)" /><path
       style="fill:none;stroke:#000000;stroke-width:0.1"
       inkscape:label="MajorYDiv13"
       d="M 140,40.4145 70,0"
       id="path1113"
       transform="matrix(0.911807,0,0,0.92123328,0.05,0.05)" /><path
       style="fill:none;stroke:#000000;stroke-width:0.1"
       inkscape:label="MajorYDiv13"
       d="M 140,28.8675 90,0"
       id="path1114"
       transform="matrix(0.911807,0,0,0.92123328,0.05,0.05)" /><path
       style="fill:none;stroke:#000000;stroke-width:0.1"
       inkscape:label="MajorYDiv13"
       d="M 140,17.3205 110,0"
       id="path1115"
       transform="matrix(0.911807,0,0,0.92123328,0.05,0.05)" /><path
       style="fill:none;stroke:#000000;stroke-width:0.1"
       inkscape:label="MajorYDiv13"
       d="M 140,5.77351 130,0"
       id="path1116"
       transform="matrix(0.911807,0,0,0.92123328,0.05,0.05)" /><g
       inkscape:label="MajorYGridlines"
       id="g1116"
       transform="matrix(0.911807,0,0,0.92123328,0.05,0.05)" /><g
       inkscape:label="MajorZGridlines"
       id="g1135"
       transform="matrix(0.911807,0,0,0.92123328,0.05,0.05)"><path
         style="fill:none;stroke:#000000;stroke-width:0.1"
         inkscape:label="MajorZDiv1"
         d="m 130,138.564 10,-5.773"
         id="path1117" /><path
         style="fill:none;stroke:#000000;stroke-width:0.1"
         inkscape:label="MajorZDiv2"
         d="m 110,138.564 30,-17.32"
         id="path1118" /><path
         style="fill:none;stroke:#000000;stroke-width:0.1"
         inkscape:label="MajorZDiv3"
         d="m 90,138.564 50,-28.867"
         id="path1119" /><path
         style="fill:none;stroke:#000000;stroke-width:0.1"
         inkscape:label="MajorZDiv4"
         d="M 70,138.564 140,98.1496"
         id="path1120" /><path
         style="fill:none;stroke:#000000;stroke-width:0.1"
         inkscape:label="MajorZDiv5"
         d="M 50,138.564 140,86.6026"
         id="path1121" /><path
         style="fill:none;stroke:#000000;stroke-width:0.1"
         inkscape:label="MajorZDiv6"
         d="M 30,138.564 140,75.0556"
         id="path1122" /><path
         style="fill:none;stroke:#000000;stroke-width:0.1"
         inkscape:label="MajorZDiv7"
         d="M 10,138.564 140,63.5086"
         id="path1123" /><path
         style="fill:none;stroke:#000000;stroke-width:0.1"
         inkscape:label="MajorZDiv8"
         d="M 0,132.791 140,51.9615"
         id="path1124" /><path
         style="fill:none;stroke:#000000;stroke-width:0.1"
         inkscape:label="MajorZDiv9"
         d="M 0,121.244 140,40.4145"
         id="path1125" /><path
         style="fill:none;stroke:#000000;stroke-width:0.1"
         inkscape:label="MajorZDiv10"
         d="M 0,109.697 140,28.8675"
         id="path1126" /><path
         style="fill:none;stroke:#000000;stroke-width:0.1"
         inkscape:label="MajorZDiv11"
         d="M 0,98.1496 140,17.3205"
         id="path1127" /><path
         style="fill:none;stroke:#000000;stroke-width:0.1"
         inkscape:label="MajorZDiv12"
         d="M 0,86.6026 140,5.77351"
         id="path1128" /><path
         style="fill:none;stroke:#000000;stroke-width:0.1"
         inkscape:label="MajorZDiv13"
         d="M 0,75.0556 130,0"
         id="path1129" /><path
         style="fill:none;stroke:#000000;stroke-width:0.1"
         inkscape:label="MajorZDiv14"
         d="M 0,63.5086 110,0"
         id="path1130" /><path
         style="fill:none;stroke:#000000;stroke-width:0.1"
         inkscape:label="MajorZDiv15"
         d="M 0,51.9615 90,0"
         id="path1131" /><path
         style="fill:none;stroke:#000000;stroke-width:0.1"
         inkscape:label="MajorZDiv16"
         d="M 0,40.4145 70,0"
         id="path1132" /><path
         style="fill:none;stroke:#000000;stroke-width:0.1"
         inkscape:label="MajorZDiv17"
         d="M 0,28.8675 50,0"
         id="path1133" /><path
         style="fill:none;stroke:#000000;stroke-width:0.1"
         inkscape:label="MajorZDiv18"
         d="M 0,17.3205 30,0"
         id="path1134" /><path
         style="fill:none;stroke:#000000;stroke-width:0.1"
         inkscape:label="MajorZDiv19"
         d="M 0,5.77351 10,0"
         id="path1135" /></g><rect
       x="0"
       y="0"
       width="140"
       height="138.56413"
       style="fill:none;stroke:#000000;stroke-width:0.1"
       inkscape:label="Border"
       id="rect1135"
       transform="matrix(0.911807,0,0,0.92123328,0.05,0.05)" /><g
       inkscape:label="Grid_Polar:X7:Y6"
       transform="matrix(0.911807,0,0,0.92123328,0.05,0.05)"
       id="g1136" /></g><g
     inkscape:groupmode="layer"
     id="layer2"
     inkscape:label="Icon 1"><g
       id="g52"
       transform="matrix(0.14336493,0,0,0.14336493,156.88244,1.3187898)"><path
         style="display:inline;opacity:1;fill:#fe7865;fill-opacity:1;stroke:#ffffff;stroke-width:3.48760328;stroke-linecap:round;stroke-linejoin:bevel;stroke-miterlimit:0;stroke-dasharray:none;stroke-dashoffset:0"
         d="m -381.05772,65.416928 c -20.46803,0.462905 -39.50207,9.402748 -58.02674,17.220876 -7.63291,4.14241 -13.24125,11.630894 -17.25339,19.177256 -1.73286,5.16637 -0.9559,14.04808 -8.10735,14.88333 -26.41704,2.46903 -53.19186,0.9893 -79.19092,-4.27981 -62.3843,-11.16234 -125.27614,-26.333367 -189.11821,-21.34031 -64.51541,4.432479 -129.15015,26.99159 -178.03725,70.16173 -16.35755,15.66703 -33.50486,30.74139 -47.88571,48.29649 -8.52038,13.20013 -19.18576,24.71837 -29.42365,36.55388 -18.43196,23.642 -36.57526,48.27325 -46.88606,76.70593 -6.8068,17.80342 -14.5592,35.41154 -19.4389,53.85007 0.741,4.03485 6.4725,1.5412 8.0983,-0.65394 14.5358,-14.47903 22.0631,-34.31407 36.1145,-49.25824 13.37402,-15.15591 35.49013,-16.11375 54.21843,-14.93618 11.69351,-0.11285 22.25815,5.86043 30.26376,14.01308 19.546,16.71607 32.61972,39.25855 43.53429,62.18127 7.38135,14.14654 14.45263,28.70917 24.1425,41.43302 3.51437,3.30945 7.71502,-0.66286 8.21935,-4.45109 11.72989,-33.40616 26.05069,-66.10969 44.44059,-96.40355 11.08158,-17.94098 28.16337,-31.12945 45.55487,-42.52139 26.17318,-16.12595 58.20839,-13.49311 87.7443,-13.33069 59.74323,0.82976 119.51678,5.08876 179.25967,2.32761 36.50733,-2.80707 73.39307,-4.76182 109.09866,-13.38759 24.96145,-7.98075 48.70192,-19.43502 72.21691,-30.90681 14.2873,-7.34809 24.93585,-19.93683 36.44279,-30.8358 15.63558,-14.31449 22.77412,-34.89106 30.38382,-54.0767 3.38825,-10.54107 8.17234,-21.39014 7.55703,-32.63465 -7.66647,-15.558478 -22.40665,-28.636269 -39.73276,-31.890556 -9.52056,-1.397117 -19.55762,-0.09618 -28.78147,-2.30656 -8.28557,-3.802058 -16.24598,-8.804909 -24.71932,-11.91328 -16.89181,-0.596214 -33.77837,-1.861457 -50.68804,-1.677396 z"
         id="path32" /><path
         style="fill:none;stroke:#ffffff;stroke-width:6.97520656;stroke-linecap:butt;stroke-linejoin:miter;stroke-dasharray:none;stroke-opacity:1"
         d="m -1060.141,390.11357 c 0,0 21.5822,-19.94714 24.5252,-25.17917 2.943,-5.23203 20.9281,-37.93225 35.64322,-46.1073 14.7151,-8.17506 48.72332,-11.44508 64.09242,-0.65401 15.36911,10.79107 34.98923,32.37322 45.4533,54.60936 10.46407,22.23615 25.50617,50.35833 35.97024,62.78441"
         id="path28" /><path
         style="fill:none;stroke:#ffffff;stroke-width:6.97520656;stroke-linecap:round;stroke-linejoin:round;stroke-dasharray:none;stroke-opacity:1"
         d="m -1044.4407,705.14893 c 0,0 45.47034,-29.29466 48.41337,-34.52669 2.943,-5.23203 13.13846,-83.63119 27.85358,-91.80624 14.7151,-8.17506 48.72332,-11.44508 64.09242,-0.65401 15.36911,10.79107 34.98923,32.37322 45.4533,54.60936 10.46407,22.23615 25.50617,50.35833 35.97024,62.78441"
         id="path28-1"
         sodipodi:nodetypes="cssssc" /><path
         style="fill:none;stroke:#ffffff;stroke-width:6.97520656;stroke-linecap:round;stroke-linejoin:round;stroke-dasharray:none;stroke-opacity:1"
         d="m -758.69821,706.48035 c 0,0 22.13573,-65.51545 25.07873,-70.74748 2.943,-5.23203 48.66275,5.87596 63.37787,-2.29909 14.7151,-8.17506 36.53363,-64.73144 51.90273,-53.94037 15.36911,10.79107 47.87547,10.78006 58.33954,33.0162 10.46407,22.23615 12.61993,71.95149 23.084,84.37757"
         id="path28-1-9"
         sodipodi:nodetypes="cssssc" /><path
         style="fill:none;stroke:#ffffff;stroke-width:6.97520656;stroke-linecap:round;stroke-linejoin:round;stroke-dasharray:none;stroke-opacity:1"
         d="m -473.66178,705.40344 c 0,0 31.00141,-28.08257 33.94441,-33.3146 2.943,-5.23203 21.44638,-8.4297 36.78083,-8.20955 15.33445,0.22015 97.80447,-16.09153 103.34674,-4.67042 5.54227,11.42111 37.24682,24.17532 47.71089,36.6014"
         id="path28-1-9-6"
         sodipodi:nodetypes="czzzc" /><path
         style="fill:none;stroke:#ffffff;stroke-width:6.97520656;stroke-linecap:butt;stroke-linejoin:miter;stroke-dasharray:none;stroke-opacity:1"
         d="m -456.495,99.081652 c 0,0 13.73409,-17.658116 18.31212,-17.985119 4.57803,-0.327002 34.00822,-17.004111 58.86039,-16.350107 24.85216,0.654004 50.68533,1.962013 50.68533,1.962013 l 25.17916,12.753084 29.1032,1.308008 c 0,0 25.50616,6.213041 38.25925,32.700219"
         id="path29" /><path
         style="display:none;fill:none;stroke:#ffffff;stroke-width:3.8366;stroke-linecap:butt;stroke-linejoin:miter;stroke-dasharray:3.8366, 7.67321;stroke-dashoffset:0;stroke-opacity:1"
         d="m -854.45662,435.56686 c 2.62211,-4.10019 6.78416,-13.11798 8.40274,-19.82352 1.61858,-6.70554 33.29646,-86.01586 55.49411,-105.20758 22.19764,-19.19171 38.84587,-36.99607 85.55341,-37.68974 46.70754,-0.69368 162.32026,5.31818 193.99814,3.6996 31.67789,-1.61857 108.21351,-6.70553 134.57321,-16.417 26.3597,-9.71147 67.2866,-29.36563 73.76091,-33.52769 6.47431,-4.16206 38.1522,-35.37749 41.85181,-42.54548 3.6996,-7.16799 23.78746,-47.5251 24.72674,-70.5857"
         id="path30"
         sodipodi:nodetypes="csssssssc" /><path
         style="display:none;fill:none;stroke:#ffffff;stroke-width:3.8366;stroke-linecap:butt;stroke-linejoin:miter;stroke-dasharray:3.8366, 7.67321;stroke-dashoffset:0;stroke-opacity:1"
         d="m -1060.141,390.11357 c 0,0 20.5514,-60.61732 31.1878,-83.50864 10.6364,-22.89132 44.39528,-68.67395 50.8696,-72.83601 6.47431,-4.16206 15.47102,-20.89052 21.35706,-28.08457 5.88604,-7.19404 45.28979,-45.53505 52.48384,-51.17583 7.19405,-5.64079 51.42109,-42.18328 121.56305,-56.898378 70.14196,-14.715097 119.84629,-7.030546 174.78265,2.452518 54.93636,9.48306 80.76953,16.84061 106.9297,17.33111 26.16018,0.49051 31.69527,0.12656 31.9843,-0.10467 0.28904,-0.23122 6.93677,-0.69367 8.72876,-2.7747 1.792,-2.08103 3.75924,-15.432748 3.75924,-15.432748"
         id="path31" /><path
         style="fill:none;stroke:#ffffff;stroke-width:3.8366;stroke-linecap:butt;stroke-linejoin:miter;stroke-dasharray:3.8366, 7.67321;stroke-dashoffset:0;stroke-opacity:1"
         d="m -969.28621,311.4389 c 0,0 19.67196,-62.91727 28.99153,-77.63236 9.31956,-14.7151 32.70021,-52.81085 55.91736,-70.30546 23.21716,-17.49462 54.93636,-45.2898 114.12375,-53.30136 59.18739,-8.01155 104.64069,-3.59702 169.38712,8.17506 64.74642,11.77208 98.91815,17.82162 127.36734,16.84061 28.44918,-0.98101 59.51439,-3.59702 76.8455,-14.7151 17.33111,-11.11807 38.30421,-30.129487 39.26274,-55.040755"
         id="path33" /><path
         style="fill:none;stroke:#ffffff;stroke-width:3.8366;stroke-linecap:butt;stroke-linejoin:miter;stroke-dasharray:3.8366, 7.67321;stroke-dashoffset:0;stroke-opacity:1"
         d="m -932.57323,320.61096 c 0,0 10.18191,-35.87384 12.38918,-41.92338 2.20726,-6.04954 22.23614,-53.8736 39.56726,-73.00323 17.33111,-19.12962 42.51028,-53.95535 101.37066,-68.17995 58.86039,-14.22459 116.41277,-3.76052 155.32603,2.45252 38.91325,6.21304 89.27158,13.24359 111.83473,14.06109 22.56315,0.81751 61.63991,2.12552 93.68612,-4.08752 32.04621,-6.21304 60.33189,-26.48718 72.10397,-40.54827 11.77208,-14.061093 17.49462,-31.555708 17.65812,-42.673781"
         id="path34" /><path
         style="fill:none;stroke:#ffffff;stroke-width:3.8366;stroke-linecap:butt;stroke-linejoin:miter;stroke-dasharray:3.8366, 7.67321;stroke-dashoffset:0;stroke-opacity:1"
         d="m -906.96404,346.49482 c 0,0 9.83364,-34.28952 12.85841,-42.87332 3.02477,-8.58381 17.08586,-53.30135 42.42853,-81.09654 25.34266,-27.79518 54.93636,-47.41531 95.97513,-53.13785 41.03877,-5.72253 91.7241,0 109.21872,2.45252 17.49461,2.45252 97.93714,14.06109 134.88838,15.6961 36.95125,1.63501 83.38555,-1.63501 104.80419,-7.52105 21.41865,-5.88603 66.21794,-26.16017 82.73155,-49.05032 16.51361,-22.89015 20.60113,-51.502837 20.60113,-51.502837"
         id="path35" /><path
         style="fill:none;stroke:#ffffff;stroke-width:3.8366;stroke-linecap:butt;stroke-linejoin:miter;stroke-dasharray:3.8366, 7.67321;stroke-dashoffset:0;stroke-opacity:1"
         d="m -274.3548,80.769531 c 0,0 -3.27003,21.745639 -6.21305,29.430189 -2.94301,7.68456 -16.84061,45.1263 -55.75386,64.90993 -38.91326,19.78363 -84.53006,34.66223 -124.09732,38.74976 -39.56726,4.08752 -100.22616,-2.94302 -100.22616,-2.94302 0,0 -74.55649,-5.39554 -95.15762,-7.03055 -20.60114,-1.63501 -56.73488,-4.41453 -89.43509,0.65401 -32.70022,5.06853 -49.54083,16.5136 -59.67789,25.83317 -10.13707,9.31956 -29.5937,20.11063 -46.27081,53.95535 -16.67711,33.84472 -32.40302,71.60098 -37.45665,92.20836"
         id="path36" /><path
         style="fill:none;stroke:#ffffff;stroke-width:3.8366;stroke-linecap:butt;stroke-linejoin:miter;stroke-dasharray:3.8366, 7.67321;stroke-dashoffset:0;stroke-opacity:1"
         d="m -873.04227,406.77964 c 0,0 20.38416,-50.3473 32.81024,-74.05495 12.42608,-23.70766 36.95125,-61.80341 67.19895,-78.97102 30.24769,-17.16761 39.24025,-15.6961 51.82984,-17.00411 12.58958,-1.30801 73.41198,0 91.3971,0.981 17.98512,0.98101 94.01312,6.70355 116.41276,6.21304 22.39965,-0.4905 80.76953,-0.1635 129.00235,-15.6961 48.23282,-15.5326 89.43509,-37.27824 109.05522,-68.83395 19.62013,-31.55571 21.90057,-35.07403 25.42013,-64.625325"
         id="path37" /><path
         style="fill:none;stroke:#ffffff;stroke-width:3.8366;stroke-linecap:butt;stroke-linejoin:miter;stroke-dasharray:3.8366, 7.67321;stroke-dashoffset:0;stroke-opacity:1"
         d="m -999.97258,318.8271 c 0,0 10.21209,-34.99787 13.68047,-42.5127 3.46838,-7.51483 23.35377,-50.29153 27.16899,-56.53462 3.81522,-6.24309 33.58289,-46.38251 45.22532,-56.61204"
         id="path38" /><path
         style="fill:none;stroke:#ffffff;stroke-width:3.8366;stroke-linecap:butt;stroke-linejoin:miter;stroke-dasharray:3.8366, 7.67321;stroke-dashoffset:0;stroke-opacity:1"
         d="m -1021.5902,342.08059 c 0,-10e-6 12.0599,-41.25629 18.6499,-56.7484 6.58989,-15.4921 22.05018,-47.71734 26.72578,-53.03445"
         id="path39" /><path
         style="fill:none;stroke:#ffffff;stroke-width:3.8366;stroke-linecap:butt;stroke-linejoin:miter;stroke-dasharray:3.8366, 7.67321;stroke-dashoffset:0;stroke-opacity:1"
         d="m -1037.9147,367.99264 c 0,0 9.0771,-34.21872 12.5455,-41.96477 3.4684,-7.74605 15.4921,-38.73026 16.5326,-40.34884 1.0405,-1.61858 24.74418,-45.81317 24.74418,-45.81317"
         id="path40" /><path
         style="fill:none;stroke:#ffffff;stroke-width:3.8366;stroke-linecap:butt;stroke-linejoin:miter;stroke-dasharray:3.8366, 7.67321;stroke-dashoffset:0;stroke-opacity:1"
         d="m -846.05388,415.74334 -18.83829,-28.62967 -17.05299,-31.89219 -18.51364,-31.0463 -25.64299,-26.05389 -36.61306,-6.93271 -31.62463,8.89704 c 0,0 -21.02532,21.44139 -21.02532,21.44143 0,3e-5 -17.2073,27.08599 -17.2073,27.08599 l -20.3006,20.53174"
         id="path41" /><path
         style="fill:none;stroke:#ffffff;stroke-width:3.8366;stroke-linecap:butt;stroke-linejoin:miter;stroke-dasharray:3.8366, 7.67321;stroke-dashoffset:0;stroke-opacity:1"
         d="m -823.23051,361.99451 -17.00152,-29.26982 -19.41401,-30.7184 -21.56366,-31.84203 -22.05952,-28.65104 -37.02546,-7.70668 -28.78927,5.87978 -22.43328,20.74831 -7.75036,7.65926 -16.77161,15.86573"
         id="path42" /><path
         style="fill:none;stroke:#ffffff;stroke-width:3.8366;stroke-linecap:butt;stroke-linejoin:miter;stroke-dasharray:3.8366, 7.67321;stroke-dashoffset:0;stroke-opacity:1"
         d="m -796.54005,316.81943 c 0,-1e-5 -12.57963,-31.2261 -12.57963,-31.2261 l -22.03839,-31.58552 -20.51903,-31.48285 -15.36585,-32.15024 -34.47717,-10.66482 -28.3418,1.18685 -16.24252,13.58911"
         id="path43" /><path
         style="fill:none;stroke:#ffffff;stroke-width:3.8366;stroke-linecap:butt;stroke-linejoin:miter;stroke-dasharray:3.8366, 7.67321;stroke-dashoffset:0;stroke-opacity:1"
         d="m -764.18583,289.0974 -8.84725,-35.34373 c 0,0 -18.53398,-33.48995 -18.53397,-33.48996 2e-5,-1e-5 -17.49986,-32.87829 -17.49986,-32.87829 l -8.76655,-35.73607 -26.59388,-16.29188 -24.48852,-4.84423"
         id="path44" /><path
         style="fill:none;stroke:#ffffff;stroke-width:3.8366;stroke-linecap:butt;stroke-linejoin:miter;stroke-dasharray:3.8366, 7.67321;stroke-dashoffset:0;stroke-opacity:1"
         d="m -734.66962,276.25915 c 0,0 -2.86862,-37.63778 -2.86862,-37.63778 0,0 -7.69966,-34.08152 -7.69966,-34.08152 l -10.46407,-35.15274 -1.54104,-36.11991 -13.01056,-23.06748 -12.42608,-12.589578"
         id="path45" /><path
         style="fill:none;stroke:#ffffff;stroke-width:3.8366;stroke-linecap:butt;stroke-linejoin:miter;stroke-dasharray:3.8366, 7.67321;stroke-dashoffset:0;stroke-opacity:1"
         d="m -681.28549,90.226159 c 2e-5,10e-7 1.58173,17.177191 1.58175,17.177191 1e-5,0 1.26787,24.9113 1.26787,24.9113 l 0.34883,36.14842 1.60489,33.96983 c 0,0 1.14502,33.98293 1.14502,33.98293 0,0 1.14372,36.61972 1.14372,36.61972"
         id="path46" /><path
         style="fill:none;stroke:#ffffff;stroke-width:6.97520656;stroke-linecap:butt;stroke-linejoin:miter;stroke-dasharray:none;stroke-dashoffset:0;stroke-opacity:1"
         d="m -595.79265,275.24823 c -9e-5,0 2.3107,-35.15577 2.3107,-35.15577 l 2.29255,-31.39758 c 0,0 3.67119,-28.85089 3.67118,-28.8509 -2e-5,0 -0.46406,-34.4249 -0.46406,-34.4249 l 4.31777,-23.92548 3.11082,-16.48116"
         id="path47" /><path
         style="fill:none;stroke:#ffffff;stroke-width:3.8366;stroke-linecap:butt;stroke-linejoin:miter;stroke-dasharray:3.8366, 7.67321;stroke-dashoffset:0;stroke-opacity:1"
         d="m -452.86486,272.4462 c -0.10577,-1.27657 -1.51112,-31.07228 -1.51112,-31.07228 l -4.75341,-27.65132 -5.8564,-26.42902 -2.54912,-32.71099 -5.9642,-19.3672 -6.58275,-17.57805"
         id="path48" /><path
         style="fill:none;stroke:#ffffff;stroke-width:3.8366;stroke-linecap:butt;stroke-linejoin:miter;stroke-dasharray:3.8366, 7.67321;stroke-dashoffset:0;stroke-opacity:1"
         d="m -385.11675,64.887201 c 0,0 -3.36181,18.743599 -14.47988,31.905436 -11.11807,13.161833 -45.7803,21.336893 -45.7803,21.336893 0,0 -40.54384,2.61192 -53.46264,-0.69693"
         id="path49" /><path
         style="fill:none;stroke:#ffffff;stroke-width:3.8366;stroke-linecap:butt;stroke-linejoin:miter;stroke-dasharray:3.8366, 7.67321;stroke-dashoffset:0;stroke-opacity:1"
         d="m -412.86899,71.286557 c 0,0 -3.24125,19.211288 -12.31556,28.857853 -9.07431,9.64656 -27.70029,16.53596 -32.94546,16.26836 -5.24517,-0.2676 -7.32587,0.23901 -7.32587,0.23901"
         id="path50" /><path
         style="fill:none;stroke:#ffffff;stroke-width:3.8366;stroke-linecap:butt;stroke-linejoin:miter;stroke-dasharray:3.8366, 7.67321;stroke-dashoffset:0;stroke-opacity:1"
         d="m -436.08575,80.538938 c 0,0 -5.04015,26.227262 -8.80068,28.843282 -3.76052,2.61602 -6.65355,6.29009 -9.94857,6.66032"
         id="path51" /><path
         style="fill:none;stroke:#ffffff;stroke-width:3.8366;stroke-linecap:butt;stroke-linejoin:miter;stroke-dasharray:3.8366, 7.67321;stroke-dashoffset:0;stroke-opacity:1"
         d="m -260.82229,184.05545 -14.51352,-24.6419 -21.57791,-18.50206 -27.14541,-9.94713 -21.43825,-22.55177 -28.55729,-6.58643 -25.54196,-5.033523 c 0,0 -24.74554,2.410093 -24.74555,2.410102 -1e-5,8e-6 -19.96762,9.611531 -19.96762,9.611531"
         id="path52" /></g></g><g
     inkscape:groupmode="layer"
     id="layer3"
     inkscape:label="Icon"
     style="display:inline;fill:#fe7865"
     transform="translate(-667,71)" /><g
     inkscape:label="Corner"
     inkscape:groupmode="layer"
     id="layer1"
     style="display:inline"><path
       style="display:inline;fill:#fe7865;fill-opacity:1;stroke:#ffffff;stroke-width:0.2;stroke-linecap:round;stroke-linejoin:round;stroke-miterlimit:0;stroke-dasharray:none;stroke-opacity:1;paint-order:normal"
       d="m 127.74231,113.89387 c -7.20021,7.20021 1.47054,-1.46749 -13.84538,13.84842 7.58574,0 13.80605,-0.0424 13.80605,-0.0424 0,0 0.0393,-3.57019 0.0393,-13.80603 z"
       id="path406"
       sodipodi:nodetypes="cccc" /><text
       xml:space="preserve"
       style="font-size:15px;line-height:1.25;font-family:sans-serif;display:none;fill:#ffffff;fill-opacity:1"
       x="113.21716"
       y="125.38454"
       id="text14-6-6-5-2"
       inkscape:label="M"><tspan
         sodipodi:role="line"
         id="tspan14-8-4-0-1"
         x="0"
         y="0"
         style="font-style:normal;font-variant:normal;font-weight:bold;font-stretch:normal;font-size:15px;font-family:Cantarell;-inkscape-font-specification:'Cantarell Bold';fill:#ffffff;fill-opacity:1">M</tspan></text><text
       xml:space="preserve"
       style="font-size:15px;line-height:1.25;font-family:sans-serif;display:none;fill:#ffffff;fill-opacity:1"
       x="117.05715"
       y="125.51955"
       id="text14-6-6-5-2-7"
       inkscape:label="S"><tspan
         sodipodi:role="line"
         id="tspan14-8-4-0-1-0"
         x="0"
         y="0"
         style="font-style:normal;font-variant:normal;font-weight:bold;font-stretch:normal;font-size:15px;font-family:Cantarell;-inkscape-font-specification:'Cantarell Bold';fill:#ffffff;fill-opacity:1">S</tspan></text></g></svg>
