<?xml version="1.0" encoding="UTF-8" standalone="no"?>
<!-- Created with Inkscape (http://www.inkscape.org/) -->

<svg
   width="128"
   height="128"
   viewBox="0 0 128 128"
   version="1.1"
   id="svg1"
   inkscape:export-filename="png/facade.png"
   inkscape:export-xdpi="192"
   inkscape:export-ydpi="192"
   inkscape:version="1.4 (e7c3feb100, 2024-10-09)"
   sodipodi:docname="loft curves.svg"
   xml:space="preserve"
   xmlns:inkscape="http://www.inkscape.org/namespaces/inkscape"
   xmlns:sodipodi="http://sodipodi.sourceforge.net/DTD/sodipodi-0.dtd"
   xmlns="http://www.w3.org/2000/svg"
   xmlns:svg="http://www.w3.org/2000/svg"><sodipodi:namedview
     id="namedview1"
     pagecolor="#414141"
     bordercolor="#666666"
     borderopacity="1.0"
     inkscape:showpageshadow="2"
     inkscape:pageopacity="0.0"
     inkscape:pagecheckerboard="0"
     inkscape:deskcolor="#d1d1d1"
     inkscape:document-units="px"
     inkscape:zoom="3.0580839"
     inkscape:cx="30.901703"
     inkscape:cy="92.214607"
     inkscape:window-width="2179"
     inkscape:window-height="1202"
     inkscape:window-x="769"
     inkscape:window-y="313"
     inkscape:window-maximized="0"
     inkscape:current-layer="g27"
     inkscape:clip-to-page="false"
     inkscape:antialias-rendering="true"
     showgrid="false" /><defs
     id="defs1"><rect
       x="132.20701"
       y="-31.85102"
       width="80.385908"
       height="199.19527"
       id="rect16" /><rect
       x="140.29616"
       y="51.821104"
       width="44.7431"
       height="78.363621"
       id="rect15" /><clipPath
       clipPathUnits="userSpaceOnUse"
       id="clipPath2"><path
         d="M 40,0 V 950 H 970 V 0 Z"
         transform="translate(0,-2.5000001e-5)"
         id="path2" /></clipPath><clipPath
       clipPathUnits="userSpaceOnUse"
       id="clipPath4"><path
         d="M 40,0 V 950 H 970 V 0 Z"
         transform="translate(0,-2.5000001e-5)"
         id="path4" /></clipPath><clipPath
       clipPathUnits="userSpaceOnUse"
       id="clipPath6"><path
         d="M 40,0 V 950 H 970 V 0 Z"
         transform="translate(0,-2.5000001e-5)"
         id="path6" /></clipPath><clipPath
       clipPathUnits="userSpaceOnUse"
       id="clipPath8"><path
         d="M 40,0 V 950 H 970 V 0 Z"
         transform="matrix(0.1,0,0,-0.1,-37.664501,4.1082026)"
         id="path8" /></clipPath></defs><g
     id="g1137"
     inkscape:label="Grid"
     style="display:none"><g
       inkscape:label="MajorXGridlines"
       id="g1097"
       transform="matrix(0.911807,0,0,0.92123328,0.05,0.05)"><path
         style="fill:none;stroke:#000000;stroke-width:0.1"
         inkscape:label="MajorXDiv1"
         d="M 10,0 V 138.564"
         id="path1085" /><path
         style="fill:none;stroke:#000000;stroke-width:0.1"
         inkscape:label="MajorXDiv2"
         d="M 20,0 V 138.564"
         id="path1086" /><path
         style="fill:none;stroke:#000000;stroke-width:0.1"
         inkscape:label="MajorXDiv3"
         d="M 30,0 V 138.564"
         id="path1087" /><path
         style="fill:none;stroke:#000000;stroke-width:0.1"
         inkscape:label="MajorXDiv4"
         d="M 40,0 V 138.564"
         id="path1088" /><path
         style="fill:none;stroke:#000000;stroke-width:0.1"
         inkscape:label="MajorXDiv5"
         d="M 50,0 V 138.564"
         id="path1089" /><path
         style="fill:none;stroke:#000000;stroke-width:0.1"
         inkscape:label="MajorXDiv6"
         d="M 60,0 V 138.564"
         id="path1090" /><path
         style="fill:none;stroke:#000000;stroke-width:0.1"
         inkscape:label="MajorXDiv7"
         d="M 70,0 V 138.564"
         id="path1091" /><path
         style="fill:none;stroke:#000000;stroke-width:0.1"
         inkscape:label="MajorXDiv8"
         d="M 80,0 V 138.564"
         id="path1092" /><path
         style="fill:none;stroke:#000000;stroke-width:0.1"
         inkscape:label="MajorXDiv9"
         d="M 90,0 V 138.564"
         id="path1093" /><path
         style="fill:none;stroke:#000000;stroke-width:0.1"
         inkscape:label="MajorXDiv10"
         d="M 100,0 V 138.564"
         id="path1094" /><path
         style="fill:none;stroke:#000000;stroke-width:0.1"
         inkscape:label="MajorXDiv11"
         d="M 110,0 V 138.564"
         id="path1095" /><path
         style="fill:none;stroke:#000000;stroke-width:0.1"
         inkscape:label="MajorXDiv12"
         d="M 120,0 V 138.564"
         id="path1096" /><path
         style="fill:none;stroke:#000000;stroke-width:0.1"
         inkscape:label="MajorXDiv13"
         d="M 130,0 V 138.564"
         id="path1097" /></g><path
       style="fill:none;stroke:#000000;stroke-width:0.1"
       inkscape:label="MajorYDiv13"
       d="M 10,138.564 0,132.791"
       id="path1098"
       transform="matrix(0.911807,0,0,0.92123328,0.05,0.05)" /><path
       style="fill:none;stroke:#000000;stroke-width:0.1"
       inkscape:label="MajorYDiv13"
       d="M 30,138.564 0,121.244"
       id="path1099"
       transform="matrix(0.911807,0,0,0.92123328,0.05,0.05)" /><path
       style="fill:none;stroke:#000000;stroke-width:0.1"
       inkscape:label="MajorYDiv13"
       d="M 50,138.564 0,109.697"
       id="path1100"
       transform="matrix(0.911807,0,0,0.92123328,0.05,0.05)" /><path
       style="fill:none;stroke:#000000;stroke-width:0.1"
       inkscape:label="MajorYDiv13"
       d="M 70,138.564 0,98.1496"
       id="path1101"
       transform="matrix(0.911807,0,0,0.92123328,0.05,0.05)" /><path
       style="fill:none;stroke:#000000;stroke-width:0.1"
       inkscape:label="MajorYDiv13"
       d="M 90,138.564 0,86.6026"
       id="path1102"
       transform="matrix(0.911807,0,0,0.92123328,0.05,0.05)" /><path
       style="fill:none;stroke:#000000;stroke-width:0.1"
       inkscape:label="MajorYDiv13"
       d="M 110,138.564 0,75.0556"
       id="path1103"
       transform="matrix(0.911807,0,0,0.92123328,0.05,0.05)" /><path
       style="fill:none;stroke:#000000;stroke-width:0.1"
       inkscape:label="MajorYDiv13"
       d="M 130,138.564 0,63.5086"
       id="path1104"
       transform="matrix(0.911807,0,0,0.92123328,0.05,0.05)" /><path
       style="fill:none;stroke:#000000;stroke-width:0.1"
       inkscape:label="MajorYDiv13"
       d="M 140,132.791 0,51.9615"
       id="path1105"
       transform="matrix(0.911807,0,0,0.92123328,0.05,0.05)" /><path
       style="fill:none;stroke:#000000;stroke-width:0.1"
       inkscape:label="MajorYDiv13"
       d="M 140,121.244 0,40.4145"
       id="path1106"
       transform="matrix(0.911807,0,0,0.92123328,0.05,0.05)" /><path
       style="fill:none;stroke:#000000;stroke-width:0.1"
       inkscape:label="MajorYDiv13"
       d="M 140,109.697 0,28.8675"
       id="path1107"
       transform="matrix(0.911807,0,0,0.92123328,0.05,0.05)" /><path
       style="fill:none;stroke:#000000;stroke-width:0.1"
       inkscape:label="MajorYDiv13"
       d="M 140,98.1496 0,17.3205"
       id="path1108"
       transform="matrix(0.911807,0,0,0.92123328,0.05,0.05)" /><path
       style="fill:none;stroke:#000000;stroke-width:0.1"
       inkscape:label="MajorYDiv13"
       d="M 140,86.6026 0,5.77351"
       id="path1109"
       transform="matrix(0.911807,0,0,0.92123328,0.05,0.05)" /><path
       style="fill:none;stroke:#000000;stroke-width:0.1"
       inkscape:label="MajorYDiv13"
       d="M 140,75.0556 10,0"
       id="path1110"
       transform="matrix(0.911807,0,0,0.92123328,0.05,0.05)" /><path
       style="fill:none;stroke:#000000;stroke-width:0.1"
       inkscape:label="MajorYDiv13"
       d="M 140,63.5086 30,0"
       id="path1111"
       transform="matrix(0.911807,0,0,0.92123328,0.05,0.05)" /><path
       style="fill:none;stroke:#000000;stroke-width:0.1"
       inkscape:label="MajorYDiv13"
       d="M 140,51.9615 50,0"
       id="path1112"
       transform="matrix(0.911807,0,0,0.92123328,0.05,0.05)" /><path
       style="fill:none;stroke:#000000;stroke-width:0.1"
       inkscape:label="MajorYDiv13"
       d="M 140,40.4145 70,0"
       id="path1113"
       transform="matrix(0.911807,0,0,0.92123328,0.05,0.05)" /><path
       style="fill:none;stroke:#000000;stroke-width:0.1"
       inkscape:label="MajorYDiv13"
       d="M 140,28.8675 90,0"
       id="path1114"
       transform="matrix(0.911807,0,0,0.92123328,0.05,0.05)" /><path
       style="fill:none;stroke:#000000;stroke-width:0.1"
       inkscape:label="MajorYDiv13"
       d="M 140,17.3205 110,0"
       id="path1115"
       transform="matrix(0.911807,0,0,0.92123328,0.05,0.05)" /><path
       style="fill:none;stroke:#000000;stroke-width:0.1"
       inkscape:label="MajorYDiv13"
       d="M 140,5.77351 130,0"
       id="path1116"
       transform="matrix(0.911807,0,0,0.92123328,0.05,0.05)" /><g
       inkscape:label="MajorYGridlines"
       id="g1116"
       transform="matrix(0.911807,0,0,0.92123328,0.05,0.05)" /><g
       inkscape:label="MajorZGridlines"
       id="g1135"
       transform="matrix(0.911807,0,0,0.92123328,0.05,0.05)"><path
         style="fill:none;stroke:#000000;stroke-width:0.1"
         inkscape:label="MajorZDiv1"
         d="m 130,138.564 10,-5.773"
         id="path1117" /><path
         style="fill:none;stroke:#000000;stroke-width:0.1"
         inkscape:label="MajorZDiv2"
         d="m 110,138.564 30,-17.32"
         id="path1118" /><path
         style="fill:none;stroke:#000000;stroke-width:0.1"
         inkscape:label="MajorZDiv3"
         d="m 90,138.564 50,-28.867"
         id="path1119" /><path
         style="fill:none;stroke:#000000;stroke-width:0.1"
         inkscape:label="MajorZDiv4"
         d="M 70,138.564 140,98.1496"
         id="path1120" /><path
         style="fill:none;stroke:#000000;stroke-width:0.1"
         inkscape:label="MajorZDiv5"
         d="M 50,138.564 140,86.6026"
         id="path1121" /><path
         style="fill:none;stroke:#000000;stroke-width:0.1"
         inkscape:label="MajorZDiv6"
         d="M 30,138.564 140,75.0556"
         id="path1122" /><path
         style="fill:none;stroke:#000000;stroke-width:0.1"
         inkscape:label="MajorZDiv7"
         d="M 10,138.564 140,63.5086"
         id="path1123" /><path
         style="fill:none;stroke:#000000;stroke-width:0.1"
         inkscape:label="MajorZDiv8"
         d="M 0,132.791 140,51.9615"
         id="path1124" /><path
         style="fill:none;stroke:#000000;stroke-width:0.1"
         inkscape:label="MajorZDiv9"
         d="M 0,121.244 140,40.4145"
         id="path1125" /><path
         style="fill:none;stroke:#000000;stroke-width:0.1"
         inkscape:label="MajorZDiv10"
         d="M 0,109.697 140,28.8675"
         id="path1126" /><path
         style="fill:none;stroke:#000000;stroke-width:0.1"
         inkscape:label="MajorZDiv11"
         d="M 0,98.1496 140,17.3205"
         id="path1127" /><path
         style="fill:none;stroke:#000000;stroke-width:0.1"
         inkscape:label="MajorZDiv12"
         d="M 0,86.6026 140,5.77351"
         id="path1128" /><path
         style="fill:none;stroke:#000000;stroke-width:0.1"
         inkscape:label="MajorZDiv13"
         d="M 0,75.0556 130,0"
         id="path1129" /><path
         style="fill:none;stroke:#000000;stroke-width:0.1"
         inkscape:label="MajorZDiv14"
         d="M 0,63.5086 110,0"
         id="path1130" /><path
         style="fill:none;stroke:#000000;stroke-width:0.1"
         inkscape:label="MajorZDiv15"
         d="M 0,51.9615 90,0"
         id="path1131" /><path
         style="fill:none;stroke:#000000;stroke-width:0.1"
         inkscape:label="MajorZDiv16"
         d="M 0,40.4145 70,0"
         id="path1132" /><path
         style="fill:none;stroke:#000000;stroke-width:0.1"
         inkscape:label="MajorZDiv17"
         d="M 0,28.8675 50,0"
         id="path1133" /><path
         style="fill:none;stroke:#000000;stroke-width:0.1"
         inkscape:label="MajorZDiv18"
         d="M 0,17.3205 30,0"
         id="path1134" /><path
         style="fill:none;stroke:#000000;stroke-width:0.1"
         inkscape:label="MajorZDiv19"
         d="M 0,5.77351 10,0"
         id="path1135" /></g><rect
       x="0"
       y="0"
       width="140"
       height="138.56413"
       style="fill:none;stroke:#000000;stroke-width:0.1"
       inkscape:label="Border"
       id="rect1135"
       transform="matrix(0.911807,0,0,0.92123328,0.05,0.05)" /><g
       inkscape:label="Grid_Polar:X7:Y6"
       transform="matrix(0.911807,0,0,0.92123328,0.05,0.05)"
       id="g1136" /></g><g
     inkscape:groupmode="layer"
     id="layer3"
     inkscape:label="Icon"
     style="display:inline;fill:#fe7865"
     transform="translate(-667,71)"><g
       id="g27"
       transform="matrix(0.2431922,0,0,0.2431922,692.09258,-40.985884)"><path
         style="display:inline;opacity:1;fill:#fe7865;fill-opacity:1;stroke:#feaca1;stroke-width:0.231225;stroke-linecap:round;stroke-linejoin:bevel;stroke-miterlimit:0"
         d="m -608.29993,-3.7248973 c -8.60047,-0.099333 -16.87994,2.93833264 -24.07996,7.4814075 -9.71241,5.4286452 -20.03103,9.7891098 -29.48938,15.6465558 -14.54921,11.457124 -28.24549,23.933844 -41.96724,36.350673 -16.97167,14.572456 -34.42586,28.649789 -52.74306,41.503653 -1.78707,1.430337 1.19597,3.415028 1.64272,4.953688 58.00264,93.69047 116.86941,186.84655 174.51584,280.75695 6.06078,11.84477 13.87751,23.20735 24.94254,30.90021 9.88998,6.78899 21.81473,10.36981 33.68666,11.44205 14.47584,0.49906 28.98166,-2.9633 41.6882,-9.90633 16.57194,-8.94475 30.3529,-21.99785 45.55117,-32.95091 16.47876,-12.83397 34.11463,-24.6409 47.91912,-40.50405 12.73459,-15.28542 21.14993,-33.50523 30.57316,-50.87761 17.41374,-33.83318 34.66181,-67.76187 51.04847,-102.09959 7.65969,-16.37299 18.96561,-30.60777 30.88302,-44.04838 5.42825,-6.50348 11.54166,-12.45947 16.72689,-19.14581 -0.22637,-1.78887 -3.23872,-1.3646 -4.5341,-2.24577 -80.59778,-25.628908 -161.42787,-50.517894 -242.15364,-75.741334 -9.48949,1.285239 -19.15211,1.758479 -28.70447,1.104643 -4.44122,-1.660028 -7.88059,-5.310412 -11.81779,-7.891472 -8.27761,-5.956422 -16.03051,-12.572491 -22.97733,-20.042469 -8.51946,-8.40937 -16.15564,-18.8244468 -27.96181,-22.7983663 -4.06605,-1.5166125 -8.43306,-1.9751562 -12.74901,-1.887739 z"
         id="path10"
         transform="translate(667,-71)" /><g
         id="g18"
         inkscape:label="White"
         style="stroke-width:3.08398049;stroke-dasharray:none"><path
           style="fill:none;stroke:#ffffff;stroke-width:3.08398049;stroke-linecap:butt;stroke-linejoin:miter;stroke-opacity:1;stroke-dasharray:none"
           d="m -91.25,26.75 c 5.75,-3 33.5,-24.5 33.5,-24.5 0,0 30.75,-26 31,-27 0.25,-1 32.5,-28 32.5,-28 0,0 29.5,-14.5 31.75,-16.5 2.25,-2 15.5,-7.75 29.25,-5.25 13.75,2.5 22.75,13.75 22.75,13.75 l 18.25,19 c 0,0 19.25,15.5 24.75,18.75 5.5,3.25 30.25,-0.5 30.25,-0.5"
           id="path1" /><path
           style="fill:none;stroke:#ffffff;stroke-width:3.08398049;stroke-linecap:butt;stroke-linejoin:miter;stroke-opacity:1;stroke-dasharray:none"
           d="m 85.59018,309.95751 c 0,0 10.46406,27.79518 35.31623,38.58625 24.85216,10.79107 54.60936,8.82906 88.61758,-18.96613 34.00822,-27.79518 63.76542,-44.47229 79.78853,-69.97846 16.0231,-25.50616 47.08831,-89.27158 56.89837,-108.23771 9.81006,-18.96612 15.6961,-36.29724 27.79518,-53.62835 12.09908,-17.33111 37.27825,-43.81829 37.27825,-43.81829"
           id="path3" /></g><path
         style="fill:none;stroke:#ffffff;stroke-width:3.08398049;stroke-linecap:butt;stroke-linejoin:miter;stroke-opacity:1;stroke-dasharray:3.08398057,6.1679611;stroke-dashoffset:0"
         d="M -91.25,26.75 85.59018,309.95751"
         id="path5" /><path
         style="fill:none;stroke:#ffffff;stroke-width:3.08398049;stroke-linecap:butt;stroke-linejoin:miter;stroke-opacity:1;stroke-dasharray:3.08398057,6.1679611;stroke-dashoffset:0"
         d="M 162.75,-23.5 411.28432,53.91482"
         id="path7" /><path
         style="fill:none;stroke:#ffffff;stroke-width:3.08398049;stroke-linecap:butt;stroke-linejoin:miter;stroke-opacity:1;stroke-dasharray:3.08398057,6.1679611;stroke-dashoffset:0"
         d="M -57.75,2.25 120.90641,348.54376"
         id="path11" /><path
         style="fill:none;stroke:#ffffff;stroke-width:3.08398049;stroke-linecap:butt;stroke-linejoin:miter;stroke-opacity:1;stroke-dasharray:3.08398057,6.1679611;stroke-dashoffset:0"
         d="M 167.07118,352.06252 -26.75,-24.75"
         id="path12" /><path
         style="fill:none;stroke:#ffffff;stroke-width:3.08398049;stroke-linecap:butt;stroke-linejoin:miter;stroke-opacity:1;stroke-dasharray:3.08398057,6.1679611;stroke-dashoffset:0"
         d="M 5.75,-52.75 209.52399,329.57763"
         id="path13" /><path
         style="fill:none;stroke:#ffffff;stroke-width:3.08398049;stroke-linecap:butt;stroke-linejoin:miter;stroke-opacity:1;stroke-dasharray:3.08398057,6.1679611;stroke-dashoffset:0"
         d="M 250.33098,298.266 38.77976,-70.118567"
         id="path14" /><path
         style="fill:none;stroke:#ffffff;stroke-width:3.08398049;stroke-linecap:butt;stroke-linejoin:miter;stroke-opacity:1;stroke-dasharray:3.08398057,6.1679611;stroke-dashoffset:0"
         d="M 66.75,-74.5 289.31252,259.59917"
         id="path15" /><path
         style="fill:none;stroke:#ffffff;stroke-width:3.08398049;stroke-linecap:butt;stroke-linejoin:miter;stroke-opacity:1;stroke-dasharray:3.08398057,6.1679611;stroke-dashoffset:0"
         d="M 318.84702,205.45838 102.93749,-46.38671"
         id="path16" /><path
         style="fill:none;stroke:#ffffff;stroke-width:3.08398049;stroke-linecap:butt;stroke-linejoin:miter;stroke-opacity:1;stroke-dasharray:3.08398057,6.1679611;stroke-dashoffset:0"
         d="M 346.21089,151.36146 C 345.83883,151.17741 118.74947,-33.059688 118.74947,-33.059688"
         id="path17" /><path
         style="fill:none;stroke:#ffffff;stroke-width:3.08398049;stroke-linecap:butt;stroke-linejoin:miter;stroke-opacity:1;stroke-dasharray:3.08398057,6.1679611;stroke-dashoffset:0"
         d="M 374.00607,97.73311 135.95259,-21.997853"
         id="path18" /><path
         style="fill:none;stroke:#ffffff;stroke-width:3.08398049;stroke-linecap:butt;stroke-linejoin:miter;stroke-opacity:1;stroke-dasharray:3.08398057,6.1679611;stroke-dashoffset:0"
         d="m -73.51848,54.46374 33.72873,-17.40099 32.25377,-24.458297 34.13663,-26.233758 33.55363,-19.268754 29.2195,-7.640316 24.49331,6.900367 c 0,0 23.02303,15.295177 23.02337,15.29545 3.4e-4,2.74e-4 21.64699,7.703949 21.64699,7.703949 l 28.31907,-5.352562"
         id="path19" /><path
         style="fill:none;stroke:#ffffff;stroke-width:3.08398049;stroke-linecap:butt;stroke-linejoin:miter;stroke-opacity:1;stroke-dasharray:3.08398057,6.1679611;stroke-dashoffset:0"
         d="m 211.39235,-8.095585 c -4e-5,-1.3e-5 -29.37113,9.26833 -29.37113,9.26833 L 158.7033,-0.647479 137.54359,-6.020844 111.73115,-6.976664 81.18629,3.72602 47.34413,25.290309 12.02881,50.64083 c 0,0 -34.1758,20.61928 -34.1758,20.61928 0,0 -34.08425,11.001 -34.08425,11.001"
         id="path20" /><path
         style="fill:none;stroke:#ffffff;stroke-width:3.08398049;stroke-linecap:butt;stroke-linejoin:miter;stroke-opacity:1;stroke-dasharray:3.08398057,6.1679611;stroke-dashoffset:0"
         d="m -38.33868,110.96536 34.20645,-4.78682 c 0,0 35.36992,-18.19324 35.36992,-18.19324 0,0 36.15277,-25.0834 36.15277,-25.0834 0,0 34.7845,-22.62728 34.7845,-22.62728 0,0 31.73663,-13.955166 31.73663,-13.955166 l 26.19193,-6.025533 21.77672,-2.140682 c 0,0 24.44205,-4.758068 24.44205,-4.758068 l 29.45663,-13.903846"
         id="path21" /><path
         style="fill:none;stroke:#ffffff;stroke-width:3.08398049;stroke-linecap:butt;stroke-linejoin:miter;stroke-opacity:1;stroke-dasharray:3.08398057,6.1679611;stroke-dashoffset:0"
         d="m 261.83519,7.363592 -30.98481,18.36818 -25.32372,11.601918 -22.63236,9.54426 -27.16687,12.19029 -32.15555,18.46588 -35.8724,23.47226 -37.22155,24.38434 -36.87396,15.16629 -34.34279,-1.39414"
         id="path22" /><path
         style="fill:none;stroke:#ffffff;stroke-width:3.08398049;stroke-linecap:butt;stroke-linejoin:miter;stroke-opacity:1;stroke-dasharray:3.08398057,6.1679611;stroke-dashoffset:0"
         d="m -3.81164,166.78152 35.38985,8.61536 38.58238,-11.74062 38.02626,-24.21079 36.36852,-25.37175 33.47589,-21.52414 27.67674,-19.06085 23.51332,-16.93678 25.75801,-18.68432 32.03783,-22.66022"
         id="path23" /><path
         style="fill:none;stroke:#ffffff;stroke-width:3.08398049;stroke-linecap:butt;stroke-linejoin:miter;stroke-opacity:1;stroke-dasharray:3.08398057,6.1679611;stroke-dashoffset:0"
         d="m 312.14022,23.032879 -32.98304,26.995201 -26.5394,25.49864 -23.88221,24.82223 c 0,0 -28.69768,25.23583 -28.69768,25.23583 0,0 -34.24047,25.47876 -34.24047,25.47876 l -37.34876,26.39783 -38.88848,23.91012 -40.16723,8.55611 -35.30306,-14.96173"
         id="path24" /><path
         style="fill:none;stroke:#ffffff;stroke-width:3.08398049;stroke-linecap:butt;stroke-linejoin:miter;stroke-opacity:1;stroke-dasharray:3.08398057,6.1679611;stroke-dashoffset:0"
         d="m 31.68096,223.20758 35.2368,20.68876 41.76986,-5.33872 40.16767,-22.80865 38.07988,-27.87722 35.41512,-28.79276 c 0,0 28.92787,-32.4355 28.92787,-32.4355 l 24.73716,-32.14335 27.01787,-32.46342 32.79809,-31.3477"
         id="path25" /><path
         style="fill:none;stroke:#ffffff;stroke-width:3.08398049;stroke-linecap:butt;stroke-linejoin:miter;stroke-opacity:1;stroke-dasharray:3.08398057,6.1679611;stroke-dashoffset:0"
         d="m 361.24438,38.32811 -34.17457,35.79802 -27.5442,39.43545 -25.14498,40.02951 -30.10772,38.39698 -36.11435,32.84101 -38.87029,29.25694 -40.89749,22.77699 -43.36254,2.13728 -36.09277,-27.74488"
         id="path26" /><path
         style="fill:none;stroke:#ffffff;stroke-width:3.08398049;stroke-linecap:butt;stroke-linejoin:miter;stroke-opacity:1;stroke-dasharray:3.08398057,6.1679611;stroke-dashoffset:0"
         d="m 65.51503,277.80739 37.62366,36.29679 c 0,0 44.6178,0.40819 44.6178,0.40819 L 189.6062,292.2072 c 0,0 39.40243,-31.07085 39.40243,-31.07085 l 37.82807,-35.2767 30.27697,-45.75188 25.76988,-47.61473 28.16226,-46.30798 35.24664,-39.60818"
         id="path27" /></g></g><g
     inkscape:label="Corner"
     inkscape:groupmode="layer"
     id="layer1"
     style="display:inline"><path
       style="display:inline;fill:#fe7865;fill-opacity:1;stroke:#ffffff;stroke-width:0.2;stroke-linecap:round;stroke-linejoin:round;stroke-miterlimit:0;stroke-dasharray:none;stroke-opacity:1;paint-order:normal"
       d="m 127.74231,113.89387 c -7.20021,7.20021 1.47054,-1.46749 -13.84538,13.84842 7.58574,0 13.80605,-0.0424 13.80605,-0.0424 0,0 0.0393,-3.57019 0.0393,-13.80603 z"
       id="path406"
       sodipodi:nodetypes="cccc" /><text
       xml:space="preserve"
       style="font-size:15px;line-height:1.25;font-family:sans-serif;display:none;fill:#ffffff;fill-opacity:1"
       x="113.21716"
       y="125.38454"
       id="text14-6-6-5-2"
       inkscape:label="M"><tspan
         sodipodi:role="line"
         id="tspan14-8-4-0-1"
         x="0"
         y="0"
         style="font-style:normal;font-variant:normal;font-weight:bold;font-stretch:normal;font-size:15px;font-family:Cantarell;-inkscape-font-specification:'Cantarell Bold';fill:#ffffff;fill-opacity:1">M</tspan></text><text
       xml:space="preserve"
       style="font-size:15px;line-height:1.25;font-family:sans-serif;display:none;fill:#ffffff;fill-opacity:1"
       x="117.05715"
       y="125.51955"
       id="text14-6-6-5-2-7"
       inkscape:label="S"><tspan
         sodipodi:role="line"
         id="tspan14-8-4-0-1-0"
         x="0"
         y="0"
         style="font-style:normal;font-variant:normal;font-weight:bold;font-stretch:normal;font-size:15px;font-family:Cantarell;-inkscape-font-specification:'Cantarell Bold';fill:#ffffff;fill-opacity:1">S</tspan></text></g></svg>
