<?xml version="1.0" encoding="UTF-8" standalone="no"?>
<!-- Created with Inkscape (http://www.inkscape.org/) -->

<svg
   width="128"
   height="128"
   viewBox="0 0 128 128"
   version="1.1"
   id="svg1"
   inkscape:export-filename="perpendicular point on plane.png"
   inkscape:export-xdpi="192"
   inkscape:export-ydpi="192"
   inkscape:version="1.4 (e7c3feb100, 2024-10-09)"
   sodipodi:docname="sine wave.svg"
   xml:space="preserve"
   xmlns:inkscape="http://www.inkscape.org/namespaces/inkscape"
   xmlns:sodipodi="http://sodipodi.sourceforge.net/DTD/sodipodi-0.dtd"
   xmlns="http://www.w3.org/2000/svg"
   xmlns:svg="http://www.w3.org/2000/svg"><sodipodi:namedview
     id="namedview1"
     pagecolor="#414141"
     bordercolor="#666666"
     borderopacity="1.0"
     inkscape:showpageshadow="2"
     inkscape:pageopacity="0.0"
     inkscape:pagecheckerboard="0"
     inkscape:deskcolor="#d1d1d1"
     inkscape:document-units="px"
     inkscape:zoom="5.5945118"
     inkscape:cx="60.86322"
     inkscape:cy="69.889923"
     inkscape:window-width="2179"
     inkscape:window-height="1228"
     inkscape:window-x="1216"
     inkscape:window-y="421"
     inkscape:window-maximized="0"
     inkscape:current-layer="svg1"
     inkscape:clip-to-page="false"
     inkscape:antialias-rendering="true"
     showgrid="false" /><defs
     id="defs1"><linearGradient
       id="swatch6"
       inkscape:swatch="solid"><stop
         style="stop-color:#000000;stop-opacity:1;"
         offset="0"
         id="stop6" /></linearGradient><linearGradient
       id="swatch5"
       inkscape:swatch="solid"><stop
         style="stop-color:#000000;stop-opacity:1;"
         offset="0"
         id="stop5" /></linearGradient><linearGradient
       id="swatch4"
       inkscape:swatch="solid"><stop
         style="stop-color:#ffc107;stop-opacity:1;"
         offset="0"
         id="stop4" /></linearGradient><linearGradient
       id="swatch3"
       inkscape:swatch="solid"><stop
         style="stop-color:#0d6efd;stop-opacity:1;"
         offset="0"
         id="stop3" /></linearGradient><linearGradient
       id="swatch2"
       inkscape:swatch="solid"><stop
         style="stop-color:#81b4fe;stop-opacity:1;"
         offset="0"
         id="stop2" /></linearGradient></defs><g
     inkscape:label="Corner"
     inkscape:groupmode="layer"
     id="layer1"
     style="display:inline"><path
       style="fill:#fe7865;fill-opacity:1;stroke:#ffffff;stroke-width:0.515428;stroke-linecap:round;stroke-linejoin:round;stroke-miterlimit:0;stroke-dasharray:none;stroke-opacity:1;paint-order:normal"
       d="m 127.74231,113.89387 c -7.20021,7.20021 1.47054,-1.46749 -13.84538,13.84842 7.58574,0 13.80605,-0.0424 13.80605,-0.0424 0,0 0.0393,-3.57019 0.0393,-13.80603 z"
       id="path7"
       sodipodi:nodetypes="cccc" /></g><path
     id="path1-2"
     style="fill:none;stroke:#fe7865;stroke-width:2;stroke-linecap:round;stroke-miterlimit:0;stroke-dasharray:none"
     d="m 58.987176,73.208198 c 1.503362,2.827076 3.006723,4.590433 4.509817,4.905376 1.503353,0.315015 3.006714,-0.828581 4.509808,-3.16962 1.503362,-2.341109 3.006723,-5.868892 4.509946,-9.79606 1.503256,-3.927097 3.006537,-8.226691 4.509817,-11.944895 1.50328,-3.718133 3.006536,-6.82435 4.509817,-8.634135 1.50328,-1.809785 3.006561,-2.302812 4.509808,-1.376951 1.50328,0.925789 3.006561,3.271248 4.509816,6.509549 1.503281,3.238228 3.006561,7.350183 4.509842,11.420773 1.503264,4.07059 3.006536,8.069505 4.509811,11.111891 1.503272,3.042388 3.006532,5.100576 4.509812,5.724116 1.50328,0.623611 3.00654,-0.199693 4.50982,-2.279918 1.50328,-2.080226 3.00656,-5.408744 4.5098,-9.241985 1.50329,-3.833241 3.00657,-8.14553 4.50985,-11.97977 1.50326,-3.834168 3.00654,-7.159263 4.50982,-9.241913 1.50328,-2.082651 3.00654,-2.900749 4.50989,-2.27999 1.5031,0.620829 3.00646,2.683654 4.50982,5.724186 1.50309,3.040463 3.00645,7.041374 4.50981,11.111892 1.50309,4.070447 3.00646,8.180762 4.50982,11.420774 1.50308,3.239939 3.00645,5.580978 4.5098,6.509549 1.5031,0.92857 3.00645,0.430266 4.50983,-1.377023 M -23.212649,73.218409 c 1.503362,2.827076 3.006723,4.590433 4.509817,4.905376 1.503353,0.315015 3.006714,-0.828581 4.509808,-3.16962 1.503362,-2.341109 3.006723,-5.868892 4.5099459,-9.79606 1.503256,-3.927097 3.006537,-8.226691 4.509817,-11.944895 1.50328,-3.718133 3.006536,-6.82435 4.50981703,-8.634135 1.50328,-1.809785 3.00656097,-2.302812 4.50980797,-1.376951 1.50328,0.925789 3.006561,3.271248 4.509816,6.509549 1.503281,3.238228 3.0065611,7.350183 4.5098421,11.420773 1.503264,4.07059 3.006536,8.069505 4.509811,11.111891 1.503277,3.042388 3.006531,5.100576 4.509814,5.724116 1.503277,0.623611 3.006537,-0.199693 4.509815,-2.279918 1.503283,-2.080226 3.00656,-5.408744 4.509808,-9.241985 1.503283,-3.833241 3.006567,-8.14553 4.509844,-11.97977 1.50326,-3.834168 3.006537,-7.159263 4.50982,-9.241913 1.503277,-2.082651 3.006532,-2.900749 4.50989,-2.27999 1.503098,0.620829 3.006456,2.683654 4.509814,5.724186 1.503098,3.040463 3.006457,7.041374 4.509812,11.111892 1.50309,4.070447 3.00646,8.180762 4.509816,11.420774 1.50309,3.239939 3.00645,5.580978 4.50981,6.509549 1.50309,0.92857 3.00645,0.430266 4.50982,-1.377023" /></svg>
