<?xml version="1.0" encoding="UTF-8" standalone="no"?>
<!-- Created with Inkscape (http://www.inkscape.org/) -->

<svg
   width="128"
   height="128"
   viewBox="0 0 128 128"
   version="1.1"
   id="svg1"
   inkscape:export-filename="perpendicular point on plane.png"
   inkscape:export-xdpi="192"
   inkscape:export-ydpi="192"
   inkscape:version="1.4 (e7c3feb100, 2024-10-09)"
   sodipodi:docname="vectors.svg"
   xml:space="preserve"
   xmlns:inkscape="http://www.inkscape.org/namespaces/inkscape"
   xmlns:sodipodi="http://sodipodi.sourceforge.net/DTD/sodipodi-0.dtd"
   xmlns="http://www.w3.org/2000/svg"
   xmlns:svg="http://www.w3.org/2000/svg"><sodipodi:namedview
     id="namedview1"
     pagecolor="#414141"
     bordercolor="#666666"
     borderopacity="1.0"
     inkscape:showpageshadow="2"
     inkscape:pageopacity="0.0"
     inkscape:pagecheckerboard="0"
     inkscape:deskcolor="#d1d1d1"
     inkscape:document-units="px"
     inkscape:zoom="3.9559172"
     inkscape:cx="113.88004"
     inkscape:cy="61.93254"
     inkscape:window-width="2179"
     inkscape:window-height="1228"
     inkscape:window-x="1116"
     inkscape:window-y="472"
     inkscape:window-maximized="0"
     inkscape:current-layer="svg1"
     inkscape:clip-to-page="false"
     inkscape:antialias-rendering="true"
     showgrid="false" /><defs
     id="defs1"><linearGradient
       id="swatch6"
       inkscape:swatch="solid"><stop
         style="stop-color:#000000;stop-opacity:1;"
         offset="0"
         id="stop6" /></linearGradient><linearGradient
       id="swatch5"
       inkscape:swatch="solid"><stop
         style="stop-color:#000000;stop-opacity:1;"
         offset="0"
         id="stop5" /></linearGradient><linearGradient
       id="swatch4"
       inkscape:swatch="solid"><stop
         style="stop-color:#ffc107;stop-opacity:1;"
         offset="0"
         id="stop4" /></linearGradient><linearGradient
       id="swatch3"
       inkscape:swatch="solid"><stop
         style="stop-color:#0d6efd;stop-opacity:1;"
         offset="0"
         id="stop3" /></linearGradient><linearGradient
       id="swatch2"
       inkscape:swatch="solid"><stop
         style="stop-color:#81b4fe;stop-opacity:1;"
         offset="0"
         id="stop2" /></linearGradient></defs><g
     inkscape:label="Corner"
     inkscape:groupmode="layer"
     id="layer1"
     style="display:inline"><path
       style="fill:#0d6efd;fill-opacity:1;stroke:#ffffff;stroke-width:0.515428;stroke-linecap:round;stroke-linejoin:round;stroke-miterlimit:0;stroke-dasharray:none;stroke-opacity:1;paint-order:normal"
       d="m 127.74231,113.89387 c -7.20021,7.20021 1.47054,-1.46749 -13.84538,13.84842 7.58574,0 13.80605,-0.0424 13.80605,-0.0424 0,0 0.0393,-3.57019 0.0393,-13.80603 z"
       id="path7"
       sodipodi:nodetypes="cccc" /></g><g
     id="g2"
     transform="matrix(1.2796943,0,0,1.2796943,-19.563791,-4.9737127)"><path
       id="path1"
       style="fill:#0d6efd;stroke:none;stroke-width:1px;stroke-linecap:butt;stroke-linejoin:miter;stroke-opacity:1"
       d="m 64.523438,14.472656 c 0,0 -3.530317,6.081481 -7.160157,15.140625 1.151631,0.568679 3.241931,1.289896 4.50586,1.03711 l -0.117188,27.083984 a 5.1611166,5.1611166 0 0 1 2.992188,-0.970703 5.1611166,5.1611166 0 0 1 2.548828,0.675781 L 67.177734,30.650391 c 1.263929,0.252786 3.354229,-0.468431 4.50586,-1.03711 -3.62984,-9.059144 -7.160156,-15.140625 -7.160156,-15.140625 z" /><path
       id="path1-9"
       style="fill:#28a745;stroke:none;stroke-width:1px;stroke-linecap:butt;stroke-linejoin:miter;stroke-opacity:1"
       d="m 69.730469,60.603516 a 5.1611166,5.1611166 0 0 1 0.173828,1.322265 5.1611166,5.1611166 0 0 1 -1.955078,4.029297 L 89.296875,78.15625 c -0.850884,0.968202 -1.272144,3.140195 -1.355469,4.421875 9.660369,1.386038 16.693364,1.369141 16.693364,1.369141 0,0 -3.50268,-6.09838 -9.533208,-13.771485 -1.068306,0.713002 -2.737345,2.163778 -3.15039,3.384766 z" /><path
       id="path1-9-6"
       style="fill:#b92d3a;stroke:none;stroke-width:1px;stroke-linecap:butt;stroke-linejoin:miter;stroke-opacity:1"
       d="M 59.726562,60.765625 38.648438,73.058594 c -0.413045,-1.220988 -2.082086,-2.671764 -3.150391,-3.384766 -6.030527,7.673103 -9.533203,13.771485 -9.533203,13.771484 0,0 7.032992,0.01689 16.693359,-1.36914 -0.08333,-1.281682 -0.504585,-3.45172 -1.355469,-4.419922 l 20.335938,-11.625 a 5.1611166,5.1611166 0 0 1 -2.056641,-4.105469 5.1611166,5.1611166 0 0 1 0.144531,-1.160156 z" /></g></svg>
